<?xml version="1.0" encoding="UTF-8" standalone="no"?>
<!-- Created with Inkscape (http://www.inkscape.org/) -->

<svg
   width="210mm"
   height="200mm"
   viewBox="0 0 210 200"
   version="1.1"
   id="svg1"
   xmlns="http://www.w3.org/2000/svg"
   xmlns:svg="http://www.w3.org/2000/svg">
  <defs
     id="defs1">
    <clipPath
       clipPathUnits="userSpaceOnUse"
       id="clipPath42">
      <path
         d="M 0,874.4 H 876.706 V 0 H 0 Z"
         transform="translate(-234.75501,-335.09371)"
         id="path42" />
    </clipPath>
    <clipPath
       clipPathUnits="userSpaceOnUse"
       id="clipPath44">
      <path
         d="M 0,874.4 H 876.706 V 0 H 0 Z"
         transform="translate(-217.07631,-469.41441)"
         id="path44" />
    </clipPath>
    <clipPath
       clipPathUnits="userSpaceOnUse"
       id="clipPath46">
      <path
         d="M 0,874.4 H 876.706 V 0 H 0 Z"
         transform="translate(-359.00413,-571.78521)"
         id="path46" />
    </clipPath>
    <clipPath
       clipPathUnits="userSpaceOnUse"
       id="clipPath48">
      <path
         d="M 0,874.4 H 876.706 V 0 H 0 Z"
         transform="translate(-555.75809,-452.79491)"
         id="path48" />
    </clipPath>
    <clipPath
       clipPathUnits="userSpaceOnUse"
       id="clipPath50">
      <path
         d="M 0,874.4 H 876.706 V 0 H 0 Z"
         transform="translate(-743.37322,-426.49561)"
         id="path50" />
    </clipPath>
    <clipPath
       clipPathUnits="userSpaceOnUse"
       id="clipPath52">
      <path
         d="M 0,874.4 H 876.706 V 0 H 0 Z"
         transform="translate(-686.93542,-415.58891)"
         id="path52" />
    </clipPath>
    <clipPath
       clipPathUnits="userSpaceOnUse"
       id="clipPath54">
      <path
         d="M 0,874.4 H 876.706 V 0 H 0 Z"
         transform="translate(-545.06684,-478.09591)"
         id="path54" />
    </clipPath>
    <clipPath
       clipPathUnits="userSpaceOnUse"
       id="clipPath56">
      <path
         d="M 0,874.4 H 876.706 V 0 H 0 Z"
         transform="translate(-192.44428,-258.9966)"
         id="path56" />
    </clipPath>
    <clipPath
       clipPathUnits="userSpaceOnUse"
       id="clipPath58">
      <path
         d="M 0,874.4 H 876.706 V 0 H 0 Z"
         transform="translate(-223.38673,-263.01701)"
         id="path58" />
    </clipPath>
    <clipPath
       clipPathUnits="userSpaceOnUse"
       id="clipPath60">
      <path
         d="M 0,874.4 H 876.706 V 0 H 0 Z"
         transform="translate(-267.85573,-258.92171)"
         id="path60" />
    </clipPath>
    <clipPath
       clipPathUnits="userSpaceOnUse"
       id="clipPath62">
      <path
         d="M 0,874.4 H 876.706 V 0 H 0 Z"
         transform="translate(-298.90971,-263.01701)"
         id="path62" />
    </clipPath>
    <clipPath
       clipPathUnits="userSpaceOnUse"
       id="clipPath64">
      <path
         d="M 0,874.4 H 876.706 V 0 H 0 Z"
         transform="translate(-380.25748,-246.70991)"
         id="path64" />
    </clipPath>
    <clipPath
       clipPathUnits="userSpaceOnUse"
       id="clipPath66">
      <path
         d="M 0,874.4 H 876.706 V 0 H 0 Z"
         transform="translate(-413.28471,-263.01701)"
         id="path66" />
    </clipPath>
    <clipPath
       clipPathUnits="userSpaceOnUse"
       id="clipPath68">
      <path
         d="M 0,874.4 H 876.706 V 0 H 0 Z"
         transform="translate(2.5000001e-5,2.5000001e-5)"
         id="path68" />
    </clipPath>
    <clipPath
       clipPathUnits="userSpaceOnUse"
       id="clipPath70">
      <path
         d="M 0,874.4 H 876.706 V 0 H 0 Z"
         transform="translate(-509.62394,-246.70991)"
         id="path70" />
    </clipPath>
    <clipPath
       clipPathUnits="userSpaceOnUse"
       id="clipPath72">
      <path
         d="M 0,874.4 H 876.706 V 0 H 0 Z"
         transform="translate(-519.69381,-263.01701)"
         id="path72" />
    </clipPath>
    <clipPath
       clipPathUnits="userSpaceOnUse"
       id="clipPath74">
      <path
         d="M 0,874.4 H 876.706 V 0 H 0 Z"
         transform="translate(-610.47224,-278.7978)"
         id="path74" />
    </clipPath>
    <clipPath
       clipPathUnits="userSpaceOnUse"
       id="clipPath76">
      <path
         d="M 0,874.4 H 876.706 V 0 H 0 Z"
         transform="translate(-656.72609,-263.01701)"
         id="path76" />
    </clipPath>
    <clipPath
       clipPathUnits="userSpaceOnUse"
       id="clipPath78">
      <path
         d="M 0,874.4 H 876.706 V 0 H 0 Z"
         transform="translate(-723.71774,-259.6245)"
         id="path78" />
    </clipPath>
    <clipPath
       clipPathUnits="userSpaceOnUse"
       id="clipPath80">
      <path
         d="M 0,874.4 H 876.706 V 0 H 0 Z"
         transform="translate(-223.99138,-667.40812)"
         id="path80" />
    </clipPath>
    <clipPath
       clipPathUnits="userSpaceOnUse"
       id="clipPath82">
      <path
         d="M 0,874.4 H 876.706 V 0 H 0 Z"
         transform="translate(-257.21953,-667.51912)"
         id="path82" />
    </clipPath>
    <clipPath
       clipPathUnits="userSpaceOnUse"
       id="clipPath84">
      <path
         d="M 0,874.4 H 876.706 V 0 H 0 Z"
         transform="translate(-279.59248,-667.34182)"
         id="path84" />
    </clipPath>
    <clipPath
       clipPathUnits="userSpaceOnUse"
       id="clipPath86">
      <path
         d="M 0,874.4 H 876.706 V 0 H 0 Z"
         transform="translate(-314.81721,-656.04391)"
         id="path86" />
    </clipPath>
    <clipPath
       clipPathUnits="userSpaceOnUse"
       id="clipPath88">
      <path
         d="M 0,874.4 H 876.706 V 0 H 0 Z"
         transform="translate(-331.64188,-671.04832)"
         id="path88" />
    </clipPath>
    <clipPath
       clipPathUnits="userSpaceOnUse"
       id="clipPath90">
      <path
         d="M 0,874.4 H 876.706 V 0 H 0 Z"
         transform="translate(-370.66191,-661.85911)"
         id="path90" />
    </clipPath>
    <clipPath
       clipPathUnits="userSpaceOnUse"
       id="clipPath92">
      <path
         d="M 0,874.4 H 876.706 V 0 H 0 Z"
         transform="translate(2.5000001e-5,2.5000001e-5)"
         id="path92" />
    </clipPath>
    <clipPath
       clipPathUnits="userSpaceOnUse"
       id="clipPath94">
      <path
         d="M 0,874.4 H 876.706 V 0 H 0 Z"
         transform="translate(2.5000001e-5,2.5000001e-5)"
         id="path94" />
    </clipPath>
    <clipPath
       clipPathUnits="userSpaceOnUse"
       id="clipPath96">
      <path
         d="M 0,874.4 H 876.706 V 0 H 0 Z"
         transform="translate(-413.38949,-661.68181)"
         id="path96" />
    </clipPath>
    <clipPath
       clipPathUnits="userSpaceOnUse"
       id="clipPath98">
      <path
         d="M 0,874.4 H 876.706 V 0 H 0 Z"
         transform="translate(-422.22321,-656.31012)"
         id="path98" />
    </clipPath>
    <clipPath
       clipPathUnits="userSpaceOnUse"
       id="clipPath100">
      <path
         d="M 0,874.4 H 876.706 V 0 H 0 Z"
         transform="translate(-451.21071,-661.68181)"
         id="path100" />
    </clipPath>
    <clipPath
       clipPathUnits="userSpaceOnUse"
       id="clipPath102">
      <path
         d="M 0,874.4 H 876.706 V 0 H 0 Z"
         transform="translate(-457.80329,-651.87121)"
         id="path102" />
    </clipPath>
    <clipPath
       clipPathUnits="userSpaceOnUse"
       id="clipPath104">
      <path
         d="M 0,874.4 H 876.706 V 0 H 0 Z"
         transform="translate(-499.73174,-656.04391)"
         id="path104" />
    </clipPath>
    <clipPath
       clipPathUnits="userSpaceOnUse"
       id="clipPath106">
      <path
         d="M 0,874.4 H 876.706 V 0 H 0 Z"
         transform="translate(-516.55641,-671.04832)"
         id="path106" />
    </clipPath>
    <clipPath
       clipPathUnits="userSpaceOnUse"
       id="clipPath108">
      <path
         d="M 0,874.4 H 876.706 V 0 H 0 Z"
         transform="translate(-554.13389,-656.04391)"
         id="path108" />
    </clipPath>
    <clipPath
       clipPathUnits="userSpaceOnUse"
       id="clipPath110">
      <path
         d="M 0,874.4 H 876.706 V 0 H 0 Z"
         transform="translate(-565.23194,-672.09162)"
         id="path110" />
    </clipPath>
    <clipPath
       clipPathUnits="userSpaceOnUse"
       id="clipPath112">
      <path
         d="M 0,874.4 H 876.706 V 0 H 0 Z"
         transform="translate(-593.81969,-661.68181)"
         id="path112" />
    </clipPath>
    <clipPath
       clipPathUnits="userSpaceOnUse"
       id="clipPath114">
      <path
         d="M 0,874.4 H 876.706 V 0 H 0 Z"
         transform="translate(-603.47519,-672.09162)"
         id="path114" />
    </clipPath>
    <clipPath
       clipPathUnits="userSpaceOnUse"
       id="clipPath116">
      <path
         d="M 0,874.4 H 876.706 V 0 H 0 Z"
         transform="translate(-632.24144,-671.04832)"
         id="path116" />
    </clipPath>
    <clipPath
       clipPathUnits="userSpaceOnUse"
       id="clipPath118">
      <path
         d="M 0,874.4 H 876.706 V 0 H 0 Z"
         transform="translate(-645.44782,-651.87121)"
         id="path118" />
    </clipPath>
    <clipPath
       clipPathUnits="userSpaceOnUse"
       id="clipPath120">
      <path
         d="M 0,874.4 H 876.706 V 0 H 0 Z"
         transform="translate(-350.95663,-625.20502)"
         id="path120" />
    </clipPath>
    <clipPath
       clipPathUnits="userSpaceOnUse"
       id="clipPath122">
      <path
         d="M 0,874.4 H 876.706 V 0 H 0 Z"
         transform="translate(-384.05653,-626.27832)"
         id="path122" />
    </clipPath>
    <clipPath
       clipPathUnits="userSpaceOnUse"
       id="clipPath124">
      <path
         d="M 0,874.4 H 876.706 V 0 H 0 Z"
         transform="translate(-394.10263,-609.12712)"
         id="path124" />
    </clipPath>
    <clipPath
       clipPathUnits="userSpaceOnUse"
       id="clipPath126">
      <path
         d="M 0,874.4 H 876.706 V 0 H 0 Z"
         transform="translate(-432.22664,-625.20502)"
         id="path126" />
    </clipPath>
    <clipPath
       clipPathUnits="userSpaceOnUse"
       id="clipPath128">
      <path
         d="M 0,874.4 H 876.706 V 0 H 0 Z"
         transform="translate(-447.08099,-640.74652)"
         id="path128" />
    </clipPath>
    <clipPath
       clipPathUnits="userSpaceOnUse"
       id="clipPath130">
      <path
         d="M 0,874.4 H 876.706 V 0 H 0 Z"
         transform="translate(-470.58614,-625.82772)"
         id="path130" />
    </clipPath>
    <clipPath
       clipPathUnits="userSpaceOnUse"
       id="clipPath132">
      <path
         d="M 0,874.4 H 876.706 V 0 H 0 Z"
         transform="translate(-486.96404,-625.20502)"
         id="path132" />
    </clipPath>
    <clipPath
       clipPathUnits="userSpaceOnUse"
       id="clipPath134">
      <path
         d="M 0,874.4 H 876.706 V 0 H 0 Z"
         transform="translate(-500.74544,-609.66391)"
         id="path134" />
    </clipPath>
    <clipPath
       clipPathUnits="userSpaceOnUse"
       id="clipPath136">
      <path
         d="M 0,874.4 H 876.706 V 0 H 0 Z"
         transform="translate(-537.04454,-625.82772)"
         id="path136" />
    </clipPath>
    <clipPath
       clipPathUnits="userSpaceOnUse"
       id="clipPath138">
      <path
         d="M 0,874.4 H 876.706 V 0 H 0 Z"
         transform="translate(-553.03634,-625.29091)"
         id="path138" />
    </clipPath>
    <clipPath
       clipPathUnits="userSpaceOnUse"
       id="clipPath42-5">
      <path
         d="M 0,874.4 H 876.706 V 0 H 0 Z"
         transform="translate(-234.75501,-335.09371)"
         id="path42-1" />
    </clipPath>
    <clipPath
       clipPathUnits="userSpaceOnUse"
       id="clipPath44-7">
      <path
         d="M 0,874.4 H 876.706 V 0 H 0 Z"
         transform="translate(-217.07631,-469.41441)"
         id="path44-1" />
    </clipPath>
    <clipPath
       clipPathUnits="userSpaceOnUse"
       id="clipPath46-1">
      <path
         d="M 0,874.4 H 876.706 V 0 H 0 Z"
         transform="translate(-359.00413,-571.78521)"
         id="path46-5" />
    </clipPath>
    <clipPath
       clipPathUnits="userSpaceOnUse"
       id="clipPath48-2">
      <path
         d="M 0,874.4 H 876.706 V 0 H 0 Z"
         transform="translate(-555.75809,-452.79491)"
         id="path48-7" />
    </clipPath>
    <clipPath
       clipPathUnits="userSpaceOnUse"
       id="clipPath50-6">
      <path
         d="M 0,874.4 H 876.706 V 0 H 0 Z"
         transform="translate(-743.37322,-426.49561)"
         id="path50-1" />
    </clipPath>
    <clipPath
       clipPathUnits="userSpaceOnUse"
       id="clipPath52-4">
      <path
         d="M 0,874.4 H 876.706 V 0 H 0 Z"
         transform="translate(-686.93542,-415.58891)"
         id="path52-2" />
    </clipPath>
    <clipPath
       clipPathUnits="userSpaceOnUse"
       id="clipPath54-3">
      <path
         d="M 0,874.4 H 876.706 V 0 H 0 Z"
         transform="translate(-545.06684,-478.09591)"
         id="path54-2" />
    </clipPath>
    <clipPath
       clipPathUnits="userSpaceOnUse"
       id="clipPath56-2">
      <path
         d="M 0,874.4 H 876.706 V 0 H 0 Z"
         transform="translate(-192.44428,-258.9966)"
         id="path56-1" />
    </clipPath>
    <clipPath
       clipPathUnits="userSpaceOnUse"
       id="clipPath58-6">
      <path
         d="M 0,874.4 H 876.706 V 0 H 0 Z"
         transform="translate(-223.38673,-263.01701)"
         id="path58-8" />
    </clipPath>
    <clipPath
       clipPathUnits="userSpaceOnUse"
       id="clipPath60-5">
      <path
         d="M 0,874.4 H 876.706 V 0 H 0 Z"
         transform="translate(-267.85573,-258.92171)"
         id="path60-7" />
    </clipPath>
    <clipPath
       clipPathUnits="userSpaceOnUse"
       id="clipPath62-6">
      <path
         d="M 0,874.4 H 876.706 V 0 H 0 Z"
         transform="translate(-298.90971,-263.01701)"
         id="path62-1" />
    </clipPath>
    <clipPath
       clipPathUnits="userSpaceOnUse"
       id="clipPath64-8">
      <path
         d="M 0,874.4 H 876.706 V 0 H 0 Z"
         transform="translate(-380.25748,-246.70991)"
         id="path64-9" />
    </clipPath>
    <clipPath
       clipPathUnits="userSpaceOnUse"
       id="clipPath66-2">
      <path
         d="M 0,874.4 H 876.706 V 0 H 0 Z"
         transform="translate(-413.28471,-263.01701)"
         id="path66-7" />
    </clipPath>
    <clipPath
       clipPathUnits="userSpaceOnUse"
       id="clipPath68-9">
      <path
         d="M 0,874.4 H 876.706 V 0 H 0 Z"
         transform="translate(2.5000001e-5,2.5000001e-5)"
         id="path68-5" />
    </clipPath>
    <clipPath
       clipPathUnits="userSpaceOnUse"
       id="clipPath70-4">
      <path
         d="M 0,874.4 H 876.706 V 0 H 0 Z"
         transform="translate(-509.62394,-246.70991)"
         id="path70-3" />
    </clipPath>
    <clipPath
       clipPathUnits="userSpaceOnUse"
       id="clipPath72-1">
      <path
         d="M 0,874.4 H 876.706 V 0 H 0 Z"
         transform="translate(-519.69381,-263.01701)"
         id="path72-2" />
    </clipPath>
    <clipPath
       clipPathUnits="userSpaceOnUse"
       id="clipPath74-3">
      <path
         d="M 0,874.4 H 876.706 V 0 H 0 Z"
         transform="translate(-610.47224,-278.7978)"
         id="path74-3" />
    </clipPath>
    <clipPath
       clipPathUnits="userSpaceOnUse"
       id="clipPath76-4">
      <path
         d="M 0,874.4 H 876.706 V 0 H 0 Z"
         transform="translate(-656.72609,-263.01701)"
         id="path76-1" />
    </clipPath>
    <clipPath
       clipPathUnits="userSpaceOnUse"
       id="clipPath78-1">
      <path
         d="M 0,874.4 H 876.706 V 0 H 0 Z"
         transform="translate(-723.71774,-259.6245)"
         id="path78-3" />
    </clipPath>
    <clipPath
       clipPathUnits="userSpaceOnUse"
       id="clipPath80-8">
      <path
         d="M 0,874.4 H 876.706 V 0 H 0 Z"
         transform="translate(-223.99138,-667.40812)"
         id="path80-7" />
    </clipPath>
    <clipPath
       clipPathUnits="userSpaceOnUse"
       id="clipPath82-4">
      <path
         d="M 0,874.4 H 876.706 V 0 H 0 Z"
         transform="translate(-257.21953,-667.51912)"
         id="path82-2" />
    </clipPath>
    <clipPath
       clipPathUnits="userSpaceOnUse"
       id="clipPath84-7">
      <path
         d="M 0,874.4 H 876.706 V 0 H 0 Z"
         transform="translate(-279.59248,-667.34182)"
         id="path84-7" />
    </clipPath>
    <clipPath
       clipPathUnits="userSpaceOnUse"
       id="clipPath86-9">
      <path
         d="M 0,874.4 H 876.706 V 0 H 0 Z"
         transform="translate(-314.81721,-656.04391)"
         id="path86-3" />
    </clipPath>
    <clipPath
       clipPathUnits="userSpaceOnUse"
       id="clipPath88-1">
      <path
         d="M 0,874.4 H 876.706 V 0 H 0 Z"
         transform="translate(-331.64188,-671.04832)"
         id="path88-9" />
    </clipPath>
    <clipPath
       clipPathUnits="userSpaceOnUse"
       id="clipPath90-8">
      <path
         d="M 0,874.4 H 876.706 V 0 H 0 Z"
         transform="translate(-370.66191,-661.85911)"
         id="path90-6" />
    </clipPath>
    <clipPath
       clipPathUnits="userSpaceOnUse"
       id="clipPath92-5">
      <path
         d="M 0,874.4 H 876.706 V 0 H 0 Z"
         transform="translate(2.5000001e-5,2.5000001e-5)"
         id="path92-0" />
    </clipPath>
    <clipPath
       clipPathUnits="userSpaceOnUse"
       id="clipPath94-2">
      <path
         d="M 0,874.4 H 876.706 V 0 H 0 Z"
         transform="translate(2.5000001e-5,2.5000001e-5)"
         id="path94-8" />
    </clipPath>
    <clipPath
       clipPathUnits="userSpaceOnUse"
       id="clipPath96-6">
      <path
         d="M 0,874.4 H 876.706 V 0 H 0 Z"
         transform="translate(-413.38949,-661.68181)"
         id="path96-0" />
    </clipPath>
    <clipPath
       clipPathUnits="userSpaceOnUse"
       id="clipPath98-2">
      <path
         d="M 0,874.4 H 876.706 V 0 H 0 Z"
         transform="translate(-422.22321,-656.31012)"
         id="path98-4" />
    </clipPath>
    <clipPath
       clipPathUnits="userSpaceOnUse"
       id="clipPath100-8">
      <path
         d="M 0,874.4 H 876.706 V 0 H 0 Z"
         transform="translate(-451.21071,-661.68181)"
         id="path100-6" />
    </clipPath>
    <clipPath
       clipPathUnits="userSpaceOnUse"
       id="clipPath102-5">
      <path
         d="M 0,874.4 H 876.706 V 0 H 0 Z"
         transform="translate(-457.80329,-651.87121)"
         id="path102-0" />
    </clipPath>
    <clipPath
       clipPathUnits="userSpaceOnUse"
       id="clipPath104-9">
      <path
         d="M 0,874.4 H 876.706 V 0 H 0 Z"
         transform="translate(-499.73174,-656.04391)"
         id="path104-0" />
    </clipPath>
    <clipPath
       clipPathUnits="userSpaceOnUse"
       id="clipPath106-0">
      <path
         d="M 0,874.4 H 876.706 V 0 H 0 Z"
         transform="translate(-516.55641,-671.04832)"
         id="path106-6" />
    </clipPath>
    <clipPath
       clipPathUnits="userSpaceOnUse"
       id="clipPath108-1">
      <path
         d="M 0,874.4 H 876.706 V 0 H 0 Z"
         transform="translate(-554.13389,-656.04391)"
         id="path108-3" />
    </clipPath>
    <clipPath
       clipPathUnits="userSpaceOnUse"
       id="clipPath110-8">
      <path
         d="M 0,874.4 H 876.706 V 0 H 0 Z"
         transform="translate(-565.23194,-672.09162)"
         id="path110-9" />
    </clipPath>
    <clipPath
       clipPathUnits="userSpaceOnUse"
       id="clipPath112-3">
      <path
         d="M 0,874.4 H 876.706 V 0 H 0 Z"
         transform="translate(-593.81969,-661.68181)"
         id="path112-4" />
    </clipPath>
    <clipPath
       clipPathUnits="userSpaceOnUse"
       id="clipPath114-4">
      <path
         d="M 0,874.4 H 876.706 V 0 H 0 Z"
         transform="translate(-603.47519,-672.09162)"
         id="path114-6" />
    </clipPath>
    <clipPath
       clipPathUnits="userSpaceOnUse"
       id="clipPath116-0">
      <path
         d="M 0,874.4 H 876.706 V 0 H 0 Z"
         transform="translate(-632.24144,-671.04832)"
         id="path116-6" />
    </clipPath>
    <clipPath
       clipPathUnits="userSpaceOnUse"
       id="clipPath118-6">
      <path
         d="M 0,874.4 H 876.706 V 0 H 0 Z"
         transform="translate(-645.44782,-651.87121)"
         id="path118-1" />
    </clipPath>
    <clipPath
       clipPathUnits="userSpaceOnUse"
       id="clipPath120-8">
      <path
         d="M 0,874.4 H 876.706 V 0 H 0 Z"
         transform="translate(-350.95663,-625.20502)"
         id="path120-4" />
    </clipPath>
    <clipPath
       clipPathUnits="userSpaceOnUse"
       id="clipPath122-9">
      <path
         d="M 0,874.4 H 876.706 V 0 H 0 Z"
         transform="translate(-384.05653,-626.27832)"
         id="path122-6" />
    </clipPath>
    <clipPath
       clipPathUnits="userSpaceOnUse"
       id="clipPath124-3">
      <path
         d="M 0,874.4 H 876.706 V 0 H 0 Z"
         transform="translate(-394.10263,-609.12712)"
         id="path124-7" />
    </clipPath>
    <clipPath
       clipPathUnits="userSpaceOnUse"
       id="clipPath126-8">
      <path
         d="M 0,874.4 H 876.706 V 0 H 0 Z"
         transform="translate(-432.22664,-625.20502)"
         id="path126-8" />
    </clipPath>
    <clipPath
       clipPathUnits="userSpaceOnUse"
       id="clipPath128-2">
      <path
         d="M 0,874.4 H 876.706 V 0 H 0 Z"
         transform="translate(-447.08099,-640.74652)"
         id="path128-9" />
    </clipPath>
    <clipPath
       clipPathUnits="userSpaceOnUse"
       id="clipPath130-1">
      <path
         d="M 0,874.4 H 876.706 V 0 H 0 Z"
         transform="translate(-470.58614,-625.82772)"
         id="path130-3" />
    </clipPath>
    <clipPath
       clipPathUnits="userSpaceOnUse"
       id="clipPath132-5">
      <path
         d="M 0,874.4 H 876.706 V 0 H 0 Z"
         transform="translate(-486.96404,-625.20502)"
         id="path132-9" />
    </clipPath>
    <clipPath
       clipPathUnits="userSpaceOnUse"
       id="clipPath134-8">
      <path
         d="M 0,874.4 H 876.706 V 0 H 0 Z"
         transform="translate(-500.74544,-609.66391)"
         id="path134-4" />
    </clipPath>
    <clipPath
       clipPathUnits="userSpaceOnUse"
       id="clipPath136-0">
      <path
         d="M 0,874.4 H 876.706 V 0 H 0 Z"
         transform="translate(-537.04454,-625.82772)"
         id="path136-7" />
    </clipPath>
    <clipPath
       clipPathUnits="userSpaceOnUse"
       id="clipPath138-6">
      <path
         d="M 0,874.4 H 876.706 V 0 H 0 Z"
         transform="translate(-553.03634,-625.29091)"
         id="path138-3" />
    </clipPath>
  </defs>
  <g
     id="layer1">
    <path
       id="path41"
       d="m 0,0 c 0.316,-0.005 0.634,-0.008 0.947,-0.008 22.824,0 39.067,11.661 49.878,24.016 -1.483,-0.869 -3.014,-1.673 -4.605,-2.393 -6.117,-2.77 -12.631,-4.154 -19.552,-4.154 -13.15,0 -24.397,4.612 -33.739,13.843 -9.344,9.223 -14.015,20.416 -14.015,33.564 0,13.939 5.247,25.672 15.745,35.204 9.226,8.377 21.361,12.573 33.816,12.167 16.799,-0.547 29.884,-6.173 39.017,-13.652 -5.203,6.176 -37.777,40.245 -85.505,28.609 C -56.849,117.727 -65.03,91.626 -65.781,66.56 -66.166,53.705 -61.245,33.323 -46.11,18.19 -34.304,6.385 -18.79,0.264 0,0"
       style="fill:#f2f2f2;fill-opacity:1;fill-rule:nonzero;stroke:none"
       transform="matrix(0.35277776,0,0,-0.35277776,26.133649,141.34521)"
       clip-path="url(#clipPath42-5)" />
    <path
       id="path43"
       d="M 0,0 C 54.135,8.697 81.58,-23.433 85.629,-28.508 V 17.48 C 70.054,25.004 54.952,28.479 44.347,28.479 17.356,28.479 -5.715,18.904 -24.863,-0.242 -35.554,-10.932 -43.251,-22.845 -47.972,-35.977 -39.312,-18.866 -23.66,-3.801 0,0"
       style="fill:#f2f2f2;fill-opacity:1;fill-rule:nonzero;stroke:none"
       transform="matrix(0.35277776,0,0,-0.35277776,19.896997,93.95985)"
       clip-path="url(#clipPath44-7)" />
    <path
       id="path45"
       d="M 0,0 C 0,6.696 -5.428,12.125 -12.124,12.125 H -48.15 v -191.926 c 0,-4.793 -1.066,-9.428 -3.167,-13.776 -7.435,-15.382 -29.257,-50.925 -71.964,-50.925 -0.361,0 -0.724,0.003 -1.09,0.008 -20.753,0.292 -38.692,7.414 -51.874,20.598 -6.157,6.157 -10.783,13.098 -14.173,20.128 4.664,-13.737 12.524,-26.164 23.627,-37.263 19.148,-19.151 42.219,-28.721 69.21,-28.721 24.451,0 45.792,7.957 64.017,23.877 18.223,15.918 29.069,35.755 32.53,59.519 0.692,4.154 1.037,8.305 1.037,12.458 z"
       style="fill:#f2f2f2;fill-opacity:1;fill-rule:nonzero;stroke:none"
       transform="matrix(0.35277776,0,0,-0.35277776,69.965976,57.84571)"
       clip-path="url(#clipPath46-1)" />
    <path
       id="path47"
       d="m 0,0 c 9.028,12.077 26.102,29.424 52.305,34.461 v 79.495 c 0,6.911 -5.602,12.513 -12.513,12.513 H 0 Z"
       style="fill:#f2f2f2;fill-opacity:1;fill-rule:nonzero;stroke:none"
       transform="matrix(0.35277776,0,0,-0.35277776,139.3764,99.82284)"
       clip-path="url(#clipPath48-2)" />
    <path
       id="path49"
       d="m 0,0 c -3.11,12.698 -8.104,24.233 -14.969,34.606 -6.871,10.364 -16.464,18.333 -28.774,23.912 -12.315,5.57 -27.022,8.36 -44.131,8.36 -9.817,0 -19.193,-1.635 -28.157,-4.793 44.729,-2.185 67.939,-38.233 67.742,-73.039 -0.154,-26.953 1.064,-97.661 1.345,-113.508 H 4.667 v 81.69 C 4.667,-26.963 3.11,-12.703 0,0"
       style="fill:#f2f2f2;fill-opacity:1;fill-rule:nonzero;stroke:none"
       transform="matrix(0.35277776,0,0,-0.35277776,205.56285,109.10065)"
       clip-path="url(#clipPath50-6)" />
    <path
       id="path51"
       d="m 0,0 c 0.178,31.169 -20.721,63.476 -61.007,64.916 -6.421,0.238 -12.35,-0.344 -17.835,-1.5 -0.01,-0.006 -0.02,-0.012 -0.03,-0.018 v 0.012 c -33.21,-7.013 -49.549,-35.808 -52.305,-41.143 v -135.823 h 52.305 l 0.388,84.025 c 0.516,14.252 4.795,26.305 12.83,36.159 8.035,9.849 17.627,14.775 28.774,14.775 11.403,0 21.193,-5.187 29.356,-15.552 3.09,-3.924 5.591,-8.167 7.512,-12.723 -0.003,2.508 0,4.824 0.012,6.872"
       style="fill:#f2f2f2;fill-opacity:1;fill-rule:nonzero;stroke:none"
       transform="matrix(0.35277776,0,0,-0.35277776,185.65285,112.94829)"
       clip-path="url(#clipPath52-4)" />
    <path
       id="path53"
       d="m 0,0 -55.044,-160.194 c -2.347,-8.852 -10.245,-15.1 -19.4,-15.347 l -19.071,-0.515 c -8.517,-0.23 -16.168,5.179 -18.793,13.284 0,0 -1.919,4.915 -5.102,13.067 1.274,-0.36 2.613,-0.558 3.997,-0.542 0.075,0.002 0.146,0.004 0.22,0.006 5.783,0.156 10.752,3.759 12.705,9.253 l 53.603,154.351 c 0.612,0.097 1.226,0.189 1.858,0.206 l 33.688,0.763 C -3.723,14.538 1.952,7.365 0,0 m -174.825,10.607 43.609,0.636 c 6.099,0.164 11.541,-3.806 13.245,-9.664 l 27.675,-69.163 c 0.674,-2.912 3.828,-3.632 5.863,-2.334 l -23.744,-68.369 c -1.242,-3.499 -4.413,-3.813 -5.331,-3.811 -0.939,-0.012 -4.1,0.221 -5.416,3.662 z"
       style="fill:#f2f2f2;fill-opacity:1;fill-rule:nonzero;stroke:none"
       transform="matrix(0.35277776,0,0,-0.35277776,135.60477,90.89721)"
       clip-path="url(#clipPath54-3)" />
    <path
       id="path55"
       d="m 0,0 c -2.927,0 -5.629,-0.72 -8.106,-2.158 -2.477,-1.44 -4.448,-3.46 -5.912,-6.062 -1.464,-2.602 -2.195,-5.355 -2.195,-8.256 0,-2.878 0.738,-5.63 2.214,-8.257 1.476,-2.628 3.459,-4.673 5.949,-6.137 2.489,-1.464 5.16,-2.195 8.013,-2.195 2.877,0 5.604,0.725 8.181,2.177 2.577,1.451 4.559,3.415 5.949,5.892 1.388,2.477 2.083,5.267 2.083,8.37 0,4.728 -1.558,8.681 -4.673,11.859 C 8.388,-1.589 4.554,0 0,0 m 21.023,19.801 c 0,0 0.423,-28.6 0,-37.784 -0.262,-5.697 -2.015,-9.185 -5.51,-13.086 -2.106,-2.351 -4.353,-3.461 -7.096,-4.814 -2.743,-1.353 -5.743,-2.029 -8.999,-2.029 -5.786,0 -10.727,2.098 -14.823,6.293 -4.096,4.195 -6.144,9.3 -6.144,15.312 0,5.886 2.067,10.921 6.2,15.105 4.134,4.183 9.105,6.274 14.917,6.274 3.356,0 6.394,-0.714 9.112,-2.142 2.718,-1.427 5.104,-3.569 7.158,-6.425 v 23.296 z"
       style="fill:#f2f2f2;fill-opacity:1;fill-rule:nonzero;stroke:none"
       transform="matrix(0.35277776,0,0,-0.35277776,11.207366,168.19057)"
       clip-path="url(#clipPath56-2)" />
    <path
       id="path57"
       d="m 0,0 h 5.373 v -5.975 c 1.602,2.355 3.294,4.115 5.073,5.28 1.778,1.164 3.631,1.747 5.56,1.747 1.452,0 3.006,-0.464 4.659,-1.39 l -2.742,-4.434 c -1.103,0.476 -2.03,0.714 -2.781,0.714 -1.753,0 -3.445,-0.72 -5.073,-2.16 C 8.441,-7.659 7.201,-9.895 6.35,-12.925 5.698,-15.255 5.373,-19.965 5.373,-27.053 V -40.88 H 0 Z"
       style="fill:#f2f2f2;fill-opacity:1;fill-rule:nonzero;stroke:none"
       transform="matrix(0.35277776,0,0,-0.35277776,22.123175,166.77226)"
       clip-path="url(#clipPath58-6)" />
    <path
       id="path59"
       d="m 0,0 c -4.374,0 -8.132,-1.616 -11.275,-4.847 -3.141,-3.232 -4.713,-7.139 -4.713,-11.723 0,-2.956 0.716,-5.712 2.15,-8.267 1.432,-2.554 3.368,-4.527 5.806,-5.917 2.439,-1.391 5.116,-2.086 8.032,-2.086 2.915,0 5.592,0.695 8.032,2.086 2.438,1.39 4.373,3.363 5.806,5.917 1.433,2.555 2.15,5.311 2.15,8.267 0,4.584 -1.578,8.491 -4.733,11.723 C 8.1,-1.616 4.349,0 0,0 m 0.019,5.147 c 6.298,0 11.517,-2.28 15.658,-6.838 3.764,-4.159 5.646,-9.081 5.646,-14.767 0,-5.711 -1.989,-10.702 -5.966,-14.973 -3.977,-4.271 -9.091,-6.406 -15.338,-6.406 -6.274,0 -11.399,2.135 -15.376,6.406 -3.978,4.271 -5.966,9.262 -5.966,14.973 0,5.661 1.882,10.571 5.646,14.729 4.14,4.584 9.372,6.876 15.696,6.876"
       style="fill:#f2f2f2;fill-opacity:1;fill-rule:nonzero;stroke:none"
       transform="matrix(0.35277776,0,0,-0.35277776,37.810849,168.21699)"
       clip-path="url(#clipPath60-5)" />
    <path
       id="path61"
       d="m 0,0 h 5.26 v -7.327 c 2.105,2.805 4.434,4.903 6.989,6.294 2.555,1.39 5.335,2.085 8.342,2.085 3.055,0 5.767,-0.777 8.134,-2.329 2.367,-1.554 4.115,-3.645 5.241,-6.276 1.128,-2.629 1.692,-6.726 1.692,-12.286 V -40.88 h -5.261 v 19.5 c 0,4.709 -0.195,7.853 -0.585,9.431 -0.61,2.706 -1.779,4.74 -3.508,6.106 -1.728,1.365 -3.983,2.048 -6.763,2.048 -3.182,0 -6.032,-1.052 -8.55,-3.156 C 8.473,-9.056 6.814,-11.661 6.012,-14.767 5.511,-16.796 5.26,-20.503 5.26,-25.888 V -40.88 H 0 Z"
       style="fill:#f2f2f2;fill-opacity:1;fill-rule:nonzero;stroke:none"
       transform="matrix(0.35277776,0,0,-0.35277776,48.766002,166.77226)"
       clip-path="url(#clipPath62-6)" />
    <path
       id="path63"
       d="m 0,0 c -0.702,2.805 -1.724,5.047 -3.066,6.726 -1.343,1.678 -3.116,3.03 -5.323,4.058 -2.208,1.027 -4.527,1.54 -6.96,1.54 -4.014,0 -7.462,-1.29 -10.346,-3.87 C -27.802,6.575 -29.394,3.757 -30.472,0 Z m 0,-11.009 4.433,-2.329 c -1.454,-2.857 -3.133,-5.161 -5.039,-6.914 -1.905,-1.754 -4.049,-3.088 -6.431,-4.002 -2.382,-0.914 -5.078,-1.371 -8.086,-1.371 -6.669,0 -11.884,2.184 -15.645,6.556 -3.761,4.371 -5.641,9.312 -5.641,14.823 0,5.185 1.592,9.807 4.776,13.865 4.036,5.16 9.439,7.74 16.209,7.74 6.97,0 12.536,-2.643 16.698,-7.928 C 4.232,5.698 5.736,1.039 5.786,-4.547 h -36.785 c 0.1,-4.748 1.618,-8.64 4.552,-11.677 2.934,-3.036 6.559,-4.555 10.872,-4.555 2.082,0 4.107,0.362 6.075,1.086 1.969,0.723 3.643,1.684 5.023,2.882 1.379,1.198 2.872,3.131 4.477,5.802"
       style="fill:#f2f2f2;fill-opacity:1;fill-rule:nonzero;stroke:none"
       transform="matrix(0.35277776,0,0,-0.35277776,77.463686,172.52505)"
       clip-path="url(#clipPath64-8)" />
    <path
       id="path65"
       d="M 0,0 H 5.599 L 19.321,-29.8 32.877,0 h 5.637 L 19.802,-40.88 h -0.977 z"
       style="fill:#f2f2f2;fill-opacity:1;fill-rule:nonzero;stroke:none"
       transform="matrix(0.35277776,0,0,-0.35277776,89.114956,166.77226)"
       clip-path="url(#clipPath66-2)" />
    <path
       id="path67"
       d="m 459.012,263.017 h 5.261 v -40.88 h -5.261 z m 2.611,16.833 c 1.197,0 2.22,-0.426 3.068,-1.278 0.848,-0.851 1.272,-1.878 1.272,-3.081 0,-1.178 -0.424,-2.192 -1.272,-3.043 -0.848,-0.852 -1.871,-1.278 -3.068,-1.278 -1.172,0 -2.183,0.426 -3.031,1.278 -0.847,0.851 -1.271,1.865 -1.271,3.043 0,1.203 0.424,2.23 1.271,3.081 0.848,0.852 1.859,1.278 3.031,1.278"
       style="fill:#f2f2f2;fill-opacity:1;fill-rule:nonzero;stroke:none"
       transform="matrix(0.35277776,0,0,-0.35277776,-56.682706,259.55882)"
       clip-path="url(#clipPath68-9)" />
    <path
       id="path69"
       d="m 0,0 c -0.702,2.805 -1.724,5.047 -3.066,6.726 -1.343,1.678 -3.116,3.03 -5.323,4.058 -2.208,1.027 -4.527,1.54 -6.96,1.54 -4.014,0 -7.462,-1.29 -10.346,-3.87 C -27.802,6.575 -29.394,3.757 -30.472,0 Z m 0,-11.009 4.433,-2.329 c -1.454,-2.857 -3.133,-5.161 -5.039,-6.914 -1.905,-1.754 -4.049,-3.088 -6.431,-4.002 -2.382,-0.914 -5.078,-1.371 -8.086,-1.371 -6.669,0 -11.884,2.184 -15.645,6.556 -3.761,4.371 -5.641,9.312 -5.641,14.823 0,5.185 1.592,9.807 4.776,13.865 4.036,5.16 9.439,7.74 16.209,7.74 6.97,0 12.536,-2.643 16.698,-7.928 C 4.232,5.698 5.736,1.039 5.787,-4.547 h -36.786 c 0.1,-4.748 1.618,-8.64 4.552,-11.677 2.934,-3.036 6.559,-4.555 10.872,-4.555 2.082,0 4.107,0.362 6.075,1.086 1.969,0.723 3.643,1.684 5.023,2.882 1.379,1.198 2.872,3.131 4.477,5.802"
       style="fill:#f2f2f2;fill-opacity:1;fill-rule:nonzero;stroke:none"
       transform="matrix(0.35277776,0,0,-0.35277776,123.1013,172.52505)"
       clip-path="url(#clipPath70-4)" />
    <path
       id="path71"
       d="M 0,0 H 5.411 L 17.941,-29.684 30.985,0 h 0.954 L 45.07,-29.684 57.842,0 h 5.47 L 45.553,-40.88 H 44.578 L 31.506,-11.611 18.441,-40.88 h -0.979 z"
       style="fill:#f2f2f2;fill-opacity:1;fill-rule:nonzero;stroke:none"
       transform="matrix(0.35277776,0,0,-0.35277776,126.65373,166.77226)"
       clip-path="url(#clipPath72-1)" />
    <path
       id="path73"
       d="m 0,0 h 5.26 v -23.108 c 2.129,2.805 4.472,4.904 7.027,6.294 2.554,1.39 5.322,2.085 8.304,2.085 3.055,0 5.767,-0.777 8.134,-2.329 2.367,-1.553 4.115,-3.639 5.241,-6.257 1.128,-2.617 1.692,-6.72 1.692,-12.305 v -21.041 h -5.261 v 19.5 c 0,4.71 -0.188,7.854 -0.563,9.432 -0.652,2.705 -1.836,4.74 -3.551,6.105 -1.716,1.366 -3.964,2.048 -6.744,2.048 -3.182,0 -6.031,-1.052 -8.548,-3.156 -2.518,-2.105 -4.177,-4.71 -4.979,-7.815 C 5.511,-32.552 5.26,-36.259 5.26,-41.669 V -56.661 H 0 Z"
       style="fill:#f2f2f2;fill-opacity:1;fill-rule:nonzero;stroke:none"
       transform="matrix(0.35277776,0,0,-0.35277776,158.67834,161.20515)"
       clip-path="url(#clipPath74-3)" />
    <path
       id="path75"
       d="m 0,0 h 5.26 v -19.087 c 0,-4.66 0.251,-7.867 0.753,-9.619 0.753,-2.506 2.189,-4.485 4.309,-5.937 2.119,-1.453 4.646,-2.18 7.582,-2.18 2.935,0 5.424,0.708 7.469,2.123 2.045,1.416 3.456,3.276 4.234,5.58 0.527,1.578 0.79,4.922 0.79,10.033 V 0 h 5.373 v -20.064 c 0,-5.637 -0.657,-9.882 -1.972,-12.738 -1.316,-2.856 -3.295,-5.091 -5.937,-6.707 -2.643,-1.616 -5.956,-2.423 -9.938,-2.423 -3.983,0 -7.309,0.807 -9.976,2.423 -2.668,1.616 -4.659,3.87 -5.975,6.763 C 0.657,-29.852 0,-25.501 0,-19.689 Z"
       style="fill:#f2f2f2;fill-opacity:1;fill-rule:nonzero;stroke:none"
       transform="matrix(0.35277776,0,0,-0.35277776,174.99567,166.77226)"
       clip-path="url(#clipPath76-4)" />
    <path
       id="path77"
       d="m 0,0 c 2.99,0 5.75,-0.72 8.281,-2.158 2.53,-1.44 4.544,-3.46 6.039,-6.062 1.495,-2.602 2.242,-5.355 2.242,-8.256 0,-2.878 -0.754,-5.63 -2.262,-8.257 -1.507,-2.628 -3.533,-4.673 -6.076,-6.137 -2.543,-1.464 -5.272,-2.195 -8.186,-2.195 -2.94,0 -5.725,0.725 -8.358,2.177 -2.632,1.451 -4.657,3.415 -6.076,5.892 -1.418,2.477 -2.128,5.267 -2.128,8.37 0,4.728 1.591,8.681 4.773,11.859 C -8.568,-1.589 -4.652,0 0,0 m -21.476,19.801 c 0,0 -0.281,-27.543 0,-37.784 0.156,-5.701 2.461,-9.569 4.952,-12.251 2.169,-2.336 5.124,-4.296 7.926,-5.649 2.802,-1.353 5.866,-2.029 9.193,-2.029 5.91,0 10.958,2.098 15.142,6.293 4.184,4.195 6.276,9.3 6.276,15.312 0,5.886 -2.112,10.921 -6.333,15.105 -4.223,4.183 -9.302,6.274 -15.239,6.274 -3.428,0 -6.531,-0.714 -9.308,-2.142 -2.776,-1.427 -5.214,-3.569 -7.312,-6.425 v 23.296 z"
       style="fill:#f2f2f2;fill-opacity:1;fill-rule:nonzero;stroke:none"
       transform="matrix(0.35277776,0,0,-0.35277776,198.62883,167.96906)"
       clip-path="url(#clipPath78-1)" />
    <path
       id="path79"
       d="m 0,0 h 2.087 c 0.991,0 1.878,0.033 2.663,0.1 0.784,0.066 1.487,0.189 2.109,0.366 1.405,0.385 2.515,1.01 3.329,1.876 0.813,0.866 1.221,1.986 1.221,3.363 0,0.71 -0.163,1.331 -0.489,1.864 C 10.595,8.102 10.062,8.493 9.323,8.745 8.967,8.863 8.508,8.952 7.946,9.012 7.384,9.071 6.681,9.1 5.838,9.1 H 1.886 Z m -3.329,-16.048 h -5.416 l 6.148,29.699 h 8.035 c 1.287,0 2.393,-0.045 3.319,-0.133 0.924,-0.089 1.734,-0.237 2.429,-0.444 1.954,-0.563 3.386,-1.451 4.296,-2.664 0.91,-1.213 1.364,-2.641 1.364,-4.284 0,-1.199 -0.166,-2.323 -0.499,-3.374 -0.333,-1.05 -0.858,-1.997 -1.575,-2.841 -0.718,-0.843 -1.635,-1.575 -2.753,-2.197 -1.117,-0.622 -2.46,-1.11 -4.028,-1.465 V -3.84 l 6.592,-12.208 H 8.59 L 2.641,-4.55 h -3.595 z"
       style="fill:#f2f2f2;fill-opacity:1;fill-rule:nonzero;stroke:none"
       transform="matrix(0.35277776,0,0,-0.35277776,22.336482,24.11207)"
       clip-path="url(#clipPath80-8)" />
    <path
       id="path81"
       d="M 0,0 C 0,0.488 -0.193,0.91 -0.577,1.265 -0.963,1.62 -1.547,1.798 -2.331,1.798 -2.923,1.798 -3.526,1.68 -4.14,1.443 -4.754,1.206 -5.331,0.855 -5.871,0.388 c -0.54,-0.466 -1.025,-1.035 -1.454,-1.709 -0.429,-0.673 -0.769,-1.446 -1.021,-2.319 1.568,0 2.885,0.103 3.951,0.311 1.065,0.207 1.923,0.48 2.575,0.821 0.65,0.34 1.117,0.728 1.398,1.165 C -0.141,-0.906 0,-0.459 0,0 M 5.282,0 C 5.282,-1.198 4.99,-2.275 4.406,-3.23 3.821,-4.184 2.959,-4.998 1.82,-5.671 0.68,-6.344 -0.726,-6.858 -2.398,-7.213 -4.07,-7.569 -5.993,-7.746 -8.169,-7.746 c -0.251,0 -0.57,0.007 -0.954,0.022 v -0.133 c 0,-0.785 0.115,-1.469 0.344,-2.053 0.229,-0.585 0.562,-1.062 0.999,-1.432 0.436,-0.37 0.965,-0.64 1.587,-0.81 0.621,-0.17 1.317,-0.255 2.087,-0.255 1.153,0 2.367,0.14 3.64,0.421 1.272,0.281 2.382,0.659 3.329,1.132 l -0.954,-4.617 c -0.918,-0.37 -1.964,-0.669 -3.141,-0.898 -1.176,-0.23 -2.431,-0.344 -3.762,-0.344 -1.584,0 -2.96,0.214 -4.129,0.643 -1.169,0.429 -2.135,1.032 -2.896,1.809 -0.763,0.777 -1.328,1.698 -1.699,2.764 -0.369,1.065 -0.555,2.242 -0.555,3.529 0,1.139 0.119,2.271 0.356,3.396 0.236,1.124 0.584,2.201 1.043,3.229 0.459,1.028 1.028,1.983 1.709,2.864 0.68,0.88 1.468,1.642 2.364,2.286 0.895,0.643 1.898,1.15 3.008,1.52 1.109,0.37 2.316,0.555 3.617,0.555 1.14,0 2.168,-0.141 3.085,-0.422 C 1.827,5.179 2.608,4.783 3.252,4.273 3.895,3.762 4.394,3.144 4.75,2.419 5.104,1.694 5.282,0.888 5.282,0"
       style="fill:#f2f2f2;fill-opacity:1;fill-rule:nonzero;stroke:none"
       transform="matrix(0.35277776,0,0,-0.35277776,34.058634,24.07291)"
       clip-path="url(#clipPath82-4)" />
    <path
       id="path83"
       d="m 0,0 c -0.133,0.192 -0.307,0.392 -0.522,0.599 -0.214,0.207 -0.462,0.396 -0.744,0.566 -0.281,0.17 -0.595,0.311 -0.943,0.422 -0.348,0.111 -0.721,0.166 -1.121,0.166 -0.695,0 -1.328,-0.166 -1.897,-0.499 -0.57,-0.333 -1.077,-0.777 -1.521,-1.332 -0.444,-0.555 -0.832,-1.191 -1.165,-1.909 -0.333,-0.718 -0.607,-1.461 -0.821,-2.23 -0.215,-0.77 -0.374,-1.528 -0.478,-2.276 -0.103,-0.747 -0.155,-1.439 -0.155,-2.075 0,-1.258 0.196,-2.182 0.589,-2.774 0.391,-0.592 0.965,-0.888 1.72,-0.888 0.813,0 1.62,0.289 2.419,0.865 0.799,0.578 1.509,1.369 2.131,2.375 0.651,1.095 1.154,2.494 1.509,4.196 z m 3.085,-10.81 c 0,-0.34 0.093,-0.61 0.278,-0.81 0.184,-0.2 0.499,-0.299 0.943,-0.299 0.414,0 0.939,0.044 1.576,0.133 l -0.91,-4.217 c -0.4,-0.089 -0.844,-0.159 -1.332,-0.211 -0.488,-0.052 -0.925,-0.078 -1.31,-0.078 -1.213,0 -2.134,0.285 -2.763,0.855 -0.629,0.569 -1.025,1.379 -1.187,2.43 h -0.089 c -1.021,-1.258 -2.12,-2.161 -3.296,-2.708 -1.177,-0.547 -2.328,-0.821 -3.452,-0.821 -0.962,0 -1.828,0.177 -2.597,0.533 -0.769,0.355 -1.42,0.858 -1.953,1.509 -0.532,0.651 -0.94,1.435 -1.221,2.353 -0.281,0.917 -0.422,1.938 -0.422,3.063 0,1.198 0.104,2.404 0.311,3.617 0.207,1.214 0.507,2.379 0.899,3.497 0.392,1.116 0.877,2.163 1.454,3.14 0.577,0.977 1.24,1.828 1.986,2.553 0.748,0.725 1.576,1.294 2.487,1.709 0.91,0.414 1.897,0.621 2.963,0.621 1.065,0 2.034,-0.218 2.907,-0.654 C -0.77,4.968 -0.015,4.298 0.622,3.396 H 0.71 L 3.351,16.159 H 8.59 L 3.263,-9.456 C 3.204,-9.737 3.159,-10 3.13,-10.244 3.1,-10.488 3.085,-10.676 3.085,-10.81"
       style="fill:#f2f2f2;fill-opacity:1;fill-rule:nonzero;stroke:none"
       transform="matrix(0.35277776,0,0,-0.35277776,41.951314,24.13546)"
       clip-path="url(#clipPath84-7)" />
    <path
       id="path85"
       d="m 0,0 v 11.764 c -1.82,2.131 -3.944,3.196 -6.37,3.196 -2.22,0 -3.97,-0.851 -5.25,-2.552 -1.28,-1.702 -1.919,-4.018 -1.919,-6.948 0,-2.826 0.632,-5.042 1.897,-6.648 1.265,-1.605 3.008,-2.408 5.227,-2.408 1.347,0 2.605,0.337 3.774,1.01 C -1.473,-1.913 -0.592,-1.051 0,0 m -15.404,5.549 c 0,3.374 0.814,6.055 2.441,8.046 1.628,1.99 3.811,2.985 6.548,2.985 1.421,0 2.653,-0.237 3.696,-0.71 C -1.676,15.396 -0.77,14.649 0,13.628 H 0.088 L 0,16.136 v 11.32 H 1.775 V -0.599 c 0,-1.717 0.045,-3.078 0.134,-4.084 H 0.577 L 0.088,-2.264 H 0 c -0.592,-0.799 -1.513,-1.495 -2.764,-2.086 -1.25,-0.592 -2.482,-0.888 -3.695,-0.888 -1.628,0 -3.115,0.381 -4.461,1.143 -1.347,0.762 -2.431,1.949 -3.252,3.562 -0.822,1.613 -1.232,3.64 -1.232,6.082"
       style="fill:#f2f2f2;fill-opacity:1;fill-rule:nonzero;stroke:none"
       transform="matrix(0.35277776,0,0,-0.35277776,54.377814,28.12111)"
       clip-path="url(#clipPath86-9)" />
    <path
       id="path87"
       d="m 0,0 c -1.835,0 -3.381,-0.699 -4.639,-2.097 -1.258,-1.399 -1.968,-3.2 -2.131,-5.405 H 6.171 C 6.126,-5.046 5.586,-3.182 4.55,-1.909 3.514,-0.636 1.997,0 0,0 m -8.679,-9.1 c 0,2.16 0.378,4.047 1.133,5.66 0.754,1.612 1.789,2.852 3.107,3.717 1.316,0.866 2.796,1.299 4.439,1.299 2.426,0 4.365,-0.795 5.815,-2.386 1.45,-1.591 2.175,-4.095 2.175,-7.514 V -9.1 H -6.814 c 0,-3.271 0.718,-5.671 2.153,-7.203 1.435,-1.531 3.455,-2.297 6.059,-2.297 2.22,0 4.173,0.392 5.86,1.176 v -1.664 c -1.376,-0.77 -3.329,-1.155 -5.86,-1.155 -3.226,0 -5.711,0.97 -7.458,2.908 -1.746,1.939 -2.619,4.683 -2.619,8.235"
       style="fill:#f2f2f2;fill-opacity:1;fill-rule:nonzero;stroke:none"
       transform="matrix(0.35277776,0,0,-0.35277776,60.313186,22.82789)"
       clip-path="url(#clipPath88-1)" />
    <path
       id="path89"
       d="m 0,0 c 0,2.9 -0.622,5.149 -1.865,6.748 -1.242,1.598 -2.981,2.397 -5.215,2.397 -1.317,0 -2.56,-0.326 -3.729,-0.977 -1.169,-0.651 -2.079,-1.48 -2.73,-2.486 V -6.681 c 1.006,-0.962 2.008,-1.657 3.007,-2.086 0.999,-0.43 2.135,-0.644 3.407,-0.644 1.731,0 3.351,0.618 4.861,1.853 C -0.754,-6.322 0,-3.803 0,0 m -14.094,10.232 0.555,-2.419 h 0.044 c 0.71,0.858 1.668,1.565 2.875,2.12 1.205,0.555 2.385,0.832 3.54,0.832 2.899,0 5.116,-0.936 6.647,-2.808 1.532,-1.872 2.298,-4.509 2.298,-7.912 0,-2.93 -0.503,-5.22 -1.51,-6.87 -1.007,-1.65 -2.178,-2.767 -3.518,-3.352 -1.339,-0.584 -2.645,-0.876 -3.917,-0.876 -2.723,0 -4.877,0.85 -6.459,2.552 h -0.044 l 0.044,-4.04 v -8.279 h -1.776 v 31.052 z"
       style="fill:#f2f2f2;fill-opacity:1;fill-rule:nonzero;stroke:none"
       transform="matrix(0.35277776,0,0,-0.35277776,74.078586,26.06964)"
       clip-path="url(#clipPath90-8)" />
    <path
       id="path91"
       d="m 378.897,672.092 h 1.776 v -20.731 h -1.776 z m -0.133,6.991 h 2.042 v -2.131 h -2.042 z"
       style="fill:#f2f2f2;fill-opacity:1;fill-rule:nonzero;stroke:none"
       transform="matrix(0.35277776,0,0,-0.35277776,-56.682706,259.55882)"
       clip-path="url(#clipPath92-5)" />
    <path
       id="path93"
       d="m 388.574,683.5 h 1.776 v -32.14 h -1.776 z"
       style="fill:#f2f2f2;fill-opacity:1;fill-rule:nonzero;stroke:none"
       transform="matrix(0.35277776,0,0,-0.35277776,-56.682706,259.55882)"
       clip-path="url(#clipPath94-2)" />
    <path
       id="path95"
       d="m 0,0 c 0,2.855 -0.666,5.123 -1.997,6.803 -1.332,1.679 -3.122,2.519 -5.372,2.519 -2.279,0 -4.087,-0.836 -5.427,-2.508 C -14.135,5.142 -14.804,2.87 -14.804,0 c 0,-2.841 0.662,-5.091 1.986,-6.748 1.324,-1.657 3.141,-2.486 5.449,-2.486 2.279,0 4.077,0.825 5.394,2.475 C -0.658,-5.109 0,-2.856 0,0 m -16.669,0 c 0,3.314 0.847,5.967 2.541,7.957 1.695,1.99 3.948,2.985 6.759,2.985 2.826,0 5.072,-0.991 6.737,-2.974 C 1.032,5.985 1.865,3.329 1.865,0 c 0,-3.241 -0.851,-5.864 -2.553,-7.869 -1.701,-2.005 -3.928,-3.007 -6.681,-3.007 -2.826,0 -5.082,0.988 -6.769,2.963 -1.687,1.976 -2.531,4.613 -2.531,7.913"
       style="fill:#f2f2f2;fill-opacity:1;fill-rule:nonzero;stroke:none"
       transform="matrix(0.35277776,0,0,-0.35277776,89.151926,26.13218)"
       clip-path="url(#clipPath96-6)" />
    <path
       id="path97"
       d="m 0,0 v 14.094 h -4.106 v 1.687 H 0 V 21.33 H 1.775 V 15.781 H 8.124 V 14.094 H 1.775 V 0.511 c 0,-1.599 0.312,-2.727 0.932,-3.385 0.622,-0.659 1.599,-0.988 2.93,-0.988 1.169,0 2.11,0.126 2.82,0.378 V -5.038 C 7.554,-5.349 6.503,-5.504 5.305,-5.504 3.648,-5.504 2.349,-5.046 1.41,-4.128 0.469,-3.211 0,-1.835 0,0"
       style="fill:#f2f2f2;fill-opacity:1;fill-rule:nonzero;stroke:none"
       transform="matrix(0.35277776,0,0,-0.35277776,92.268266,28.0272)"
       clip-path="url(#clipPath98-2)" />
    <path
       id="path99"
       d="m 0,0 c 0,2.855 -0.666,5.123 -1.997,6.803 -1.332,1.679 -3.122,2.519 -5.372,2.519 -2.279,0 -4.087,-0.836 -5.427,-2.508 C -14.135,5.142 -14.804,2.87 -14.804,0 c 0,-2.841 0.662,-5.091 1.986,-6.748 1.324,-1.657 3.141,-2.486 5.449,-2.486 2.279,0 4.077,0.825 5.394,2.475 C -0.658,-5.109 0,-2.856 0,0 m -16.669,0 c 0,3.314 0.847,5.967 2.541,7.957 1.695,1.99 3.948,2.985 6.759,2.985 2.826,0 5.072,-0.991 6.737,-2.974 C 1.032,5.985 1.865,3.329 1.865,0 c 0,-3.241 -0.851,-5.864 -2.553,-7.869 -1.701,-2.005 -3.928,-3.007 -6.681,-3.007 -2.826,0 -5.082,0.988 -6.769,2.963 -1.687,1.976 -2.531,4.613 -2.531,7.913"
       style="fill:#f2f2f2;fill-opacity:1;fill-rule:nonzero;stroke:none"
       transform="matrix(0.35277776,0,0,-0.35277776,102.49441,26.13218)"
       clip-path="url(#clipPath100-8)" />
    <path
       id="path101"
       d="M 0,0 V 1.842 C 1.598,0.969 3.477,0.533 5.637,0.533 c 1.762,0 3.156,0.41 4.185,1.232 1.028,0.821 1.542,1.971 1.542,3.451 0,1.124 -0.34,1.99 -1.021,2.597 C 9.662,8.419 8.523,8.915 6.925,9.3 5.46,9.655 4.262,10.025 3.329,10.41 c -0.932,0.384 -1.695,0.947 -2.286,1.687 -0.592,0.739 -0.888,1.716 -0.888,2.929 0,1.939 0.651,3.378 1.953,4.318 1.303,0.939 2.967,1.409 4.995,1.409 1.849,0 3.573,-0.392 5.171,-1.176 v -1.731 c -0.858,0.428 -1.69,0.758 -2.497,0.987 -0.807,0.229 -1.743,0.344 -2.808,0.344 -1.672,0 -2.941,-0.348 -3.806,-1.043 -0.866,-0.696 -1.298,-1.68 -1.298,-2.952 0,-0.888 0.203,-1.58 0.61,-2.075 0.406,-0.496 0.965,-0.877 1.676,-1.143 0.71,-0.267 1.783,-0.578 3.218,-0.933 1.998,-0.503 3.452,-1.18 4.361,-2.03 0.91,-0.852 1.365,-2.069 1.365,-3.652 0,-1.953 -0.665,-3.511 -1.997,-4.672 C 9.766,-0.485 7.946,-1.065 5.637,-1.065 3.152,-1.065 1.272,-0.71 0,0"
       style="fill:#f2f2f2;fill-opacity:1;fill-rule:nonzero;stroke:none"
       transform="matrix(0.35277776,0,0,-0.35277776,104.82013,29.59315)"
       clip-path="url(#clipPath102-5)" />
    <path
       id="path103"
       d="m 0,0 v 11.764 c -1.82,2.131 -3.944,3.196 -6.37,3.196 -2.22,0 -3.97,-0.851 -5.25,-2.552 -1.28,-1.702 -1.919,-4.018 -1.919,-6.948 0,-2.826 0.632,-5.042 1.897,-6.648 1.265,-1.605 3.008,-2.408 5.227,-2.408 1.347,0 2.605,0.337 3.774,1.01 C -1.473,-1.913 -0.592,-1.051 0,0 m -15.404,5.549 c 0,3.374 0.814,6.055 2.441,8.046 1.628,1.99 3.811,2.985 6.548,2.985 1.421,0 2.653,-0.237 3.696,-0.71 C -1.676,15.396 -0.77,14.649 0,13.628 H 0.088 L 0,16.136 v 11.32 H 1.775 V -0.599 c 0,-1.717 0.045,-3.078 0.134,-4.084 H 0.577 L 0.088,-2.264 H 0 c -0.592,-0.799 -1.513,-1.495 -2.764,-2.086 -1.25,-0.592 -2.482,-0.888 -3.695,-0.888 -1.628,0 -3.115,0.381 -4.461,1.143 -1.347,0.762 -2.431,1.949 -3.252,3.562 -0.822,1.613 -1.232,3.64 -1.232,6.082"
       style="fill:#f2f2f2;fill-opacity:1;fill-rule:nonzero;stroke:none"
       transform="matrix(0.35277776,0,0,-0.35277776,119.61155,28.12111)"
       clip-path="url(#clipPath104-9)" />
    <path
       id="path105"
       d="m 0,0 c -1.835,0 -3.381,-0.699 -4.639,-2.097 -1.258,-1.399 -1.968,-3.2 -2.131,-5.405 H 6.171 C 6.126,-5.046 5.586,-3.182 4.55,-1.909 3.514,-0.636 1.997,0 0,0 m -8.678,-9.1 c 0,2.16 0.377,4.047 1.132,5.66 0.754,1.612 1.789,2.852 3.107,3.717 1.316,0.866 2.796,1.299 4.439,1.299 2.426,0 4.365,-0.795 5.815,-2.386 1.45,-1.591 2.175,-4.095 2.175,-7.514 V -9.1 H -6.814 c 0,-3.271 0.718,-5.671 2.153,-7.203 1.435,-1.531 3.455,-2.297 6.059,-2.297 2.22,0 4.173,0.392 5.86,1.176 v -1.664 c -1.376,-0.77 -3.329,-1.155 -5.86,-1.155 -3.226,0 -5.711,0.97 -7.458,2.908 -1.746,1.939 -2.618,4.683 -2.618,8.235"
       style="fill:#f2f2f2;fill-opacity:1;fill-rule:nonzero;stroke:none"
       transform="matrix(0.35277776,0,0,-0.35277776,125.54692,22.82789)"
       clip-path="url(#clipPath106-0)" />
    <path
       id="path107"
       d="m 0,0 v 11.764 c -1.82,2.131 -3.944,3.196 -6.37,3.196 -2.22,0 -3.97,-0.851 -5.25,-2.552 -1.28,-1.702 -1.919,-4.018 -1.919,-6.948 0,-2.826 0.632,-5.042 1.897,-6.648 1.265,-1.605 3.008,-2.408 5.227,-2.408 1.347,0 2.605,0.337 3.774,1.01 C -1.473,-1.913 -0.592,-1.051 0,0 m -15.404,5.549 c 0,3.374 0.814,6.055 2.441,8.046 1.628,1.99 3.811,2.985 6.548,2.985 1.421,0 2.653,-0.237 3.696,-0.71 C -1.676,15.396 -0.77,14.649 0,13.628 H 0.088 L 0,16.136 v 11.32 H 1.775 V -0.599 c 0,-1.717 0.045,-3.078 0.134,-4.084 H 0.577 L 0.088,-2.264 H 0 c -0.592,-0.799 -1.513,-1.495 -2.764,-2.086 -1.25,-0.592 -2.482,-0.888 -3.695,-0.888 -1.628,0 -3.116,0.381 -4.461,1.143 -1.347,0.762 -2.431,1.949 -3.252,3.562 -0.822,1.613 -1.232,3.64 -1.232,6.082"
       style="fill:#f2f2f2;fill-opacity:1;fill-rule:nonzero;stroke:none"
       transform="matrix(0.35277776,0,0,-0.35277776,138.80342,28.12111)"
       clip-path="url(#clipPath108-1)" />
    <path
       id="path109"
       d="m 0,0 0.311,-3.684 h 0.044 c 0.814,1.213 1.971,2.219 3.474,3.018 1.502,0.799 3.044,1.199 4.628,1.199 H 9.034 V -1.221 H 8.457 C 6.829,-1.221 5.264,-1.665 3.762,-2.553 2.26,-3.44 1.125,-4.602 0.355,-6.037 V -20.731 H -1.421 V 0 Z"
       style="fill:#f2f2f2;fill-opacity:1;fill-rule:nonzero;stroke:none"
       transform="matrix(0.35277776,0,0,-0.35277776,142.71857,22.45984)"
       clip-path="url(#clipPath110-8)" />
    <path
       id="path111"
       d="m 0,0 c 0,2.855 -0.666,5.123 -1.997,6.803 -1.332,1.679 -3.122,2.519 -5.372,2.519 -2.279,0 -4.087,-0.836 -5.426,-2.508 -1.34,-1.672 -2.009,-3.944 -2.009,-6.814 0,-2.841 0.662,-5.091 1.986,-6.748 1.324,-1.657 3.141,-2.486 5.449,-2.486 2.279,0 4.077,0.825 5.394,2.475 C -0.658,-5.109 0,-2.856 0,0 m -16.669,0 c 0,3.314 0.847,5.967 2.541,7.957 1.695,1.99 3.948,2.985 6.759,2.985 2.826,0 5.072,-0.991 6.737,-2.974 C 1.032,5.985 1.865,3.329 1.865,0 c 0,-3.241 -0.851,-5.864 -2.553,-7.869 -1.702,-2.005 -3.928,-3.007 -6.681,-3.007 -2.826,0 -5.082,0.988 -6.769,2.963 -1.687,1.976 -2.531,4.613 -2.531,7.913"
       style="fill:#f2f2f2;fill-opacity:1;fill-rule:nonzero;stroke:none"
       transform="matrix(0.35277776,0,0,-0.35277776,152.80369,26.13218)"
       clip-path="url(#clipPath112-3)" />
    <path
       id="path113"
       d="m 0,0 0.311,-3.374 h 0.044 c 0.858,1.228 1.883,2.186 3.074,2.875 1.191,0.688 2.482,1.032 3.874,1.032 2.189,0 3.843,-0.644 4.96,-1.931 1.117,-1.288 1.676,-3.174 1.676,-5.66 V -20.731 H 12.186 V -7.28 c 0,2.071 -0.4,3.621 -1.199,4.65 -0.799,1.028 -2.102,1.542 -3.906,1.542 -1.258,0 -2.479,-0.388 -3.663,-1.165 C 2.234,-3.03 1.213,-4.084 0.355,-5.416 V -20.731 H -1.421 V 0 Z"
       style="fill:#f2f2f2;fill-opacity:1;fill-rule:nonzero;stroke:none"
       transform="matrix(0.35277776,0,0,-0.35277776,156.20994,22.45984)"
       clip-path="url(#clipPath114-4)" />
    <path
       id="path115"
       d="m 0,0 c -1.835,0 -3.381,-0.699 -4.639,-2.097 -1.258,-1.399 -1.968,-3.2 -2.131,-5.405 H 6.171 C 6.126,-5.046 5.586,-3.182 4.55,-1.909 3.514,-0.636 1.997,0 0,0 m -8.679,-9.1 c 0,2.16 0.378,4.047 1.133,5.66 0.754,1.612 1.789,2.852 3.107,3.717 1.316,0.866 2.796,1.299 4.439,1.299 2.426,0 4.365,-0.795 5.815,-2.386 1.45,-1.591 2.175,-4.095 2.175,-7.514 V -9.1 H -6.814 c 0,-3.271 0.718,-5.671 2.153,-7.203 1.435,-1.531 3.455,-2.297 6.059,-2.297 2.22,0 4.173,0.392 5.86,1.176 v -1.664 c -1.376,-0.77 -3.329,-1.155 -5.86,-1.155 -3.226,0 -5.711,0.97 -7.458,2.908 -1.746,1.939 -2.619,4.683 -2.619,8.235"
       style="fill:#f2f2f2;fill-opacity:1;fill-rule:nonzero;stroke:none"
       transform="matrix(0.35277776,0,0,-0.35277776,166.35803,22.82789)"
       clip-path="url(#clipPath116-0)" />
    <path
       id="path117"
       d="M 0,0 V 1.842 C 1.598,0.969 3.477,0.533 5.638,0.533 c 1.761,0 3.155,0.41 4.184,1.232 1.028,0.821 1.542,1.971 1.542,3.451 0,1.124 -0.34,1.99 -1.021,2.597 C 9.662,8.419 8.523,8.915 6.925,9.3 5.46,9.655 4.262,10.025 3.329,10.41 c -0.932,0.384 -1.695,0.947 -2.286,1.687 -0.592,0.739 -0.888,1.716 -0.888,2.929 0,1.939 0.651,3.378 1.953,4.318 1.303,0.939 2.967,1.409 4.995,1.409 1.849,0 3.573,-0.392 5.171,-1.176 v -1.731 c -0.858,0.428 -1.69,0.758 -2.497,0.987 -0.807,0.229 -1.743,0.344 -2.808,0.344 -1.672,0 -2.94,-0.348 -3.806,-1.043 -0.866,-0.696 -1.298,-1.68 -1.298,-2.952 0,-0.888 0.203,-1.58 0.61,-2.075 0.406,-0.496 0.965,-0.877 1.676,-1.143 0.71,-0.267 1.783,-0.578 3.218,-0.933 1.998,-0.503 3.452,-1.18 4.361,-2.03 0.91,-0.852 1.365,-2.069 1.365,-3.652 0,-1.953 -0.665,-3.511 -1.997,-4.672 C 9.766,-0.485 7.946,-1.065 5.638,-1.065 3.152,-1.065 1.272,-0.71 0,0"
       style="fill:#f2f2f2;fill-opacity:1;fill-rule:nonzero;stroke:none"
       transform="matrix(0.35277776,0,0,-0.35277776,171.01694,29.59315)"
       clip-path="url(#clipPath118-6)" />
    <path
       id="path119"
       d="M 0,0 C -0.129,0.186 -0.297,0.376 -0.505,0.569 -0.712,0.762 -0.955,0.934 -1.234,1.084 -1.513,1.234 -1.821,1.36 -2.157,1.46 -2.494,1.56 -2.855,1.61 -3.241,1.61 -3.914,1.61 -4.526,1.449 -5.077,1.127 -5.628,0.805 -6.121,0.376 -6.557,-0.161 -6.995,-0.698 -7.37,-1.313 -7.685,-2.007 -8,-2.701 -8.261,-3.42 -8.469,-4.164 c -0.207,-0.744 -0.361,-1.478 -0.461,-2.2 -0.1,-0.723 -0.15,-1.392 -0.15,-2.008 0,-1.216 0.189,-2.11 0.569,-2.683 0.379,-0.572 0.934,-0.858 1.663,-0.858 0.73,0 1.46,0.246 2.19,0.74 0.73,0.494 1.381,1.17 1.954,2.029 0.386,0.572 0.719,1.223 0.998,1.953 0.278,0.73 0.518,1.567 0.719,2.512 z m 2.962,-10.539 c 0,-0.387 0.104,-0.662 0.311,-0.827 0.208,-0.165 0.498,-0.247 0.87,-0.247 0.415,0 0.923,0.043 1.524,0.129 l -0.88,-4.079 c -0.887,-0.185 -1.738,-0.279 -2.554,-0.279 -1.174,0 -2.065,0.276 -2.673,0.827 -0.608,0.551 -0.991,1.334 -1.149,2.35 h -0.085 c -0.988,-1.216 -2.05,-2.089 -3.188,-2.619 -1.138,-0.529 -2.25,-0.794 -3.338,-0.794 -0.931,0 -1.767,0.172 -2.511,0.515 -0.745,0.344 -1.374,0.83 -1.89,1.46 -0.515,0.63 -0.908,1.388 -1.18,2.275 -0.272,0.887 -0.408,1.875 -0.408,2.963 0,1.159 0.096,2.325 0.29,3.499 0.193,1.173 0.483,2.3 0.87,3.381 0.386,1.08 0.861,2.093 1.426,3.037 0.566,0.945 1.22,1.767 1.965,2.469 0.744,0.701 1.574,1.252 2.49,1.652 0.915,0.401 1.91,0.601 2.984,0.601 0.987,0 1.924,-0.207 2.811,-0.622 0.888,-0.415 1.66,-1.066 2.319,-1.954 H 1.052 L 1.803,5.259 H 6.139 L 3.134,-9.23 C 3.077,-9.502 3.034,-9.756 3.005,-9.992 2.977,-10.228 2.962,-10.411 2.962,-10.539"
       style="fill:#f2f2f2;fill-opacity:1;fill-rule:nonzero;stroke:none"
       transform="matrix(0.35277776,0,0,-0.35277776,67.126996,39.00039)"
       clip-path="url(#clipPath120-8)" />
    <path
       id="path121"
       d="M 0,0 H -5.409 L -7.47,-10.024 c -0.072,-0.315 -0.125,-0.591 -0.161,-0.827 -0.035,-0.236 -0.053,-0.44 -0.053,-0.612 0,-0.529 0.142,-0.898 0.429,-1.105 0.286,-0.208 0.787,-0.311 1.503,-0.311 0.486,0 1.108,0.053 1.867,0.161 0.758,0.107 1.439,0.232 2.039,0.375 l -0.837,-4.228 c -0.687,-0.186 -1.435,-0.329 -2.243,-0.43 -0.809,-0.1 -1.571,-0.15 -2.286,-0.15 -0.987,0 -1.839,0.104 -2.554,0.311 -0.716,0.208 -1.307,0.504 -1.771,0.891 -0.466,0.386 -0.809,0.858 -1.031,1.417 -0.222,0.558 -0.332,1.187 -0.332,1.889 0,0.243 0.013,0.533 0.042,0.869 0.029,0.336 0.093,0.741 0.194,1.213 L -10.475,0 h -3.885 l 0.88,4.186 h 3.864 l 1.223,5.817 h 5.066 L -4.529,4.186 H 0.88 Z"
       style="fill:#f2f2f2;fill-opacity:1;fill-rule:nonzero;stroke:none"
       transform="matrix(0.35277776,0,0,-0.35277776,78.803906,38.62175)"
       clip-path="url(#clipPath122-9)" />
    <path
       id="path123"
       d="m 0,0 c -1.374,0 -2.551,0.154 -3.531,0.462 -0.98,0.307 -1.786,0.74 -2.415,1.298 -0.629,0.559 -1.091,1.227 -1.384,2.008 -0.294,0.779 -0.441,1.634 -0.441,2.565 0,0.3 0.025,0.644 0.075,1.03 0.051,0.386 0.133,0.88 0.248,1.481 l 2.575,12.493 H 0.193 L -2.426,8.672 C -2.497,8.329 -2.547,8.01 -2.575,7.717 -2.605,7.424 -2.619,7.155 -2.619,6.912 c 0,-0.858 0.236,-1.531 0.709,-2.018 0.472,-0.486 1.237,-0.729 2.297,-0.729 0.744,0 1.384,0.103 1.921,0.311 0.537,0.207 0.99,0.508 1.363,0.901 0.372,0.394 0.676,0.873 0.912,1.439 0.236,0.565 0.425,1.198 0.569,1.899 l 2.619,12.622 h 5.066 L 9.939,7.32 C 9.739,6.376 9.427,5.463 9.005,4.583 8.583,3.703 7.986,2.923 7.213,2.243 6.44,1.564 5.467,1.02 4.293,0.612 3.12,0.204 1.688,0 0,0"
       style="fill:#f2f2f2;fill-opacity:1;fill-rule:nonzero;stroke:none"
       transform="matrix(0.35277776,0,0,-0.35277776,82.347946,44.67231)"
       clip-path="url(#clipPath124-3)" />
    <path
       id="path125"
       d="M 0,0 C -0.129,0.186 -0.297,0.376 -0.505,0.569 -0.712,0.762 -0.955,0.934 -1.234,1.084 -1.513,1.234 -1.821,1.36 -2.157,1.46 -2.494,1.56 -2.855,1.61 -3.241,1.61 -3.914,1.61 -4.526,1.449 -5.077,1.127 -5.628,0.805 -6.121,0.376 -6.557,-0.161 -6.995,-0.698 -7.37,-1.313 -7.685,-2.007 -8,-2.701 -8.261,-3.42 -8.469,-4.164 c -0.207,-0.744 -0.361,-1.478 -0.461,-2.2 -0.1,-0.723 -0.15,-1.392 -0.15,-2.008 0,-1.216 0.189,-2.11 0.569,-2.683 0.379,-0.572 0.934,-0.858 1.663,-0.858 0.73,0 1.46,0.246 2.19,0.74 0.73,0.494 1.381,1.17 1.954,2.029 0.386,0.572 0.719,1.223 0.998,1.953 0.278,0.73 0.518,1.567 0.719,2.512 z m 2.962,-10.539 c 0,-0.387 0.104,-0.662 0.311,-0.827 0.208,-0.165 0.498,-0.247 0.87,-0.247 0.415,0 0.923,0.043 1.524,0.129 l -0.88,-4.079 c -0.887,-0.185 -1.738,-0.279 -2.554,-0.279 -1.174,0 -2.065,0.276 -2.673,0.827 -0.608,0.551 -0.991,1.334 -1.149,2.35 h -0.085 c -0.988,-1.216 -2.05,-2.089 -3.188,-2.619 -1.138,-0.529 -2.25,-0.794 -3.338,-0.794 -0.931,0 -1.767,0.172 -2.511,0.515 -0.745,0.344 -1.374,0.83 -1.89,1.46 -0.515,0.63 -0.908,1.388 -1.18,2.275 -0.272,0.887 -0.408,1.875 -0.408,2.963 0,1.159 0.096,2.325 0.29,3.499 0.193,1.173 0.483,2.3 0.87,3.381 0.386,1.08 0.861,2.093 1.426,3.037 0.566,0.945 1.22,1.767 1.965,2.469 0.744,0.701 1.574,1.252 2.49,1.652 0.915,0.401 1.91,0.601 2.984,0.601 0.987,0 1.924,-0.207 2.811,-0.622 0.888,-0.415 1.66,-1.066 2.319,-1.954 H 1.052 L 1.803,5.259 H 6.139 L 3.134,-9.23 C 3.077,-9.502 3.034,-9.756 3.005,-9.992 2.977,-10.228 2.962,-10.411 2.962,-10.539"
       style="fill:#f2f2f2;fill-opacity:1;fill-rule:nonzero;stroke:none"
       transform="matrix(0.35277776,0,0,-0.35277776,95.797246,39.00039)"
       clip-path="url(#clipPath126-8)" />
    <path
       id="path127"
       d="m 0,0 h 5.065 l -5.129,-24.664 c -0.115,-0.573 -0.172,-0.988 -0.172,-1.245 0,-0.401 0.121,-0.691 0.365,-0.87 0.243,-0.179 0.608,-0.268 1.095,-0.268 0.485,0 0.994,0.057 1.523,0.172 l -0.923,-4.251 c -0.329,-0.071 -0.751,-0.135 -1.266,-0.193 -0.515,-0.057 -1.009,-0.086 -1.481,-0.086 -1.517,0 -2.659,0.34 -3.424,1.02 -0.766,0.68 -1.149,1.678 -1.149,2.995 0,0.686 0.093,1.466 0.28,2.339 z"
       style="fill:#f2f2f2;fill-opacity:1;fill-rule:nonzero;stroke:none"
       transform="matrix(0.35277776,0,0,-0.35277776,101.03754,33.51769)"
       clip-path="url(#clipPath128-2)" />
    <path
       id="path129"
       d="m 0,0 c -0.773,0.343 -1.542,0.594 -2.308,0.751 -0.765,0.158 -1.456,0.236 -2.071,0.236 -0.945,0 -1.786,-0.154 -2.523,-0.461 -0.737,-0.308 -1.381,-0.716 -1.932,-1.224 -0.551,-0.508 -1.016,-1.087 -1.395,-1.738 -0.379,-0.652 -0.687,-1.321 -0.923,-2.007 -0.236,-0.687 -0.408,-1.364 -0.515,-2.029 -0.107,-0.665 -0.161,-1.27 -0.161,-1.814 0,-0.815 0.1,-1.499 0.3,-2.05 0.201,-0.551 0.48,-0.987 0.838,-1.309 0.357,-0.322 0.783,-0.551 1.277,-0.687 0.494,-0.136 1.027,-0.204 1.599,-0.204 0.959,0 1.961,0.132 3.006,0.397 1.044,0.265 2.089,0.633 3.134,1.105 l -0.924,-4.464 c -0.729,-0.301 -1.631,-0.577 -2.704,-0.827 -1.073,-0.25 -2.219,-0.376 -3.435,-0.376 -1.059,0 -2.082,0.151 -3.07,0.451 -0.987,0.301 -1.86,0.776 -2.618,1.428 -0.759,0.651 -1.367,1.492 -1.825,2.522 -0.458,1.03 -0.686,2.282 -0.686,3.756 0,0.959 0.096,1.965 0.289,3.016 0.193,1.052 0.497,2.083 0.912,3.092 0.415,1.008 0.948,1.975 1.6,2.897 0.65,0.923 1.427,1.732 2.328,2.426 0.902,0.694 1.951,1.245 3.145,1.653 1.195,0.408 2.515,0.612 3.961,0.612 0.816,0 1.756,-0.104 2.823,-0.312 C -0.813,4.633 0.1,4.365 0.858,4.036 Z"
       style="fill:#f2f2f2;fill-opacity:1;fill-rule:nonzero;stroke:none"
       transform="matrix(0.35277776,0,0,-0.35277776,109.32963,38.78071)"
       clip-path="url(#clipPath130-1)" />
    <path
       id="path131"
       d="M 0,0 C -0.129,0.186 -0.297,0.376 -0.505,0.569 -0.712,0.762 -0.955,0.934 -1.234,1.084 -1.513,1.234 -1.821,1.36 -2.157,1.46 -2.494,1.56 -2.855,1.61 -3.241,1.61 -3.914,1.61 -4.526,1.449 -5.077,1.127 -5.628,0.805 -6.121,0.376 -6.557,-0.161 -6.995,-0.698 -7.37,-1.313 -7.685,-2.007 -8,-2.701 -8.261,-3.42 -8.469,-4.164 c -0.207,-0.744 -0.361,-1.478 -0.461,-2.2 -0.1,-0.723 -0.15,-1.392 -0.15,-2.008 0,-1.216 0.189,-2.11 0.569,-2.683 0.379,-0.572 0.934,-0.858 1.663,-0.858 0.73,0 1.46,0.246 2.19,0.74 0.73,0.494 1.381,1.17 1.954,2.029 0.386,0.572 0.719,1.223 0.998,1.953 0.278,0.73 0.518,1.567 0.719,2.512 z m 2.962,-10.539 c 0,-0.387 0.104,-0.662 0.311,-0.827 0.208,-0.165 0.498,-0.247 0.87,-0.247 0.415,0 0.923,0.043 1.524,0.129 l -0.88,-4.079 c -0.887,-0.185 -1.738,-0.279 -2.554,-0.279 -1.174,0 -2.065,0.276 -2.673,0.827 -0.608,0.551 -0.991,1.334 -1.149,2.35 h -0.085 c -0.988,-1.216 -2.05,-2.089 -3.188,-2.619 -1.138,-0.529 -2.25,-0.794 -3.338,-0.794 -0.931,0 -1.767,0.172 -2.511,0.515 -0.745,0.344 -1.374,0.83 -1.89,1.46 -0.515,0.63 -0.908,1.388 -1.18,2.275 -0.272,0.887 -0.408,1.875 -0.408,2.963 0,1.159 0.096,2.325 0.29,3.499 0.193,1.173 0.483,2.3 0.87,3.381 0.386,1.08 0.861,2.093 1.426,3.037 0.566,0.945 1.22,1.767 1.965,2.469 0.744,0.701 1.574,1.252 2.49,1.652 0.915,0.401 1.91,0.601 2.984,0.601 0.987,0 1.924,-0.207 2.811,-0.622 0.888,-0.415 1.66,-1.066 2.319,-1.954 H 1.052 L 1.803,5.259 H 6.139 L 3.134,-9.23 C 3.077,-9.502 3.034,-9.756 3.005,-9.992 2.977,-10.228 2.962,-10.411 2.962,-10.539"
       style="fill:#f2f2f2;fill-opacity:1;fill-rule:nonzero;stroke:none"
       transform="matrix(0.35277776,0,0,-0.35277776,115.10739,39.00039)"
       clip-path="url(#clipPath132-5)" />
    <path
       id="path133"
       d="m 0,0 h -5.065 l 4.314,20.8 h 4.315 v -2.619 h 0.085 c 0.343,0.415 0.748,0.812 1.213,1.192 0.465,0.379 0.977,0.712 1.535,0.998 0.558,0.286 1.162,0.515 1.814,0.687 0.651,0.172 1.334,0.257 2.05,0.257 0.815,0 1.585,-0.118 2.307,-0.353 0.723,-0.237 1.36,-0.584 1.911,-1.041 0.551,-0.459 0.983,-1.017 1.298,-1.675 0.315,-0.658 0.473,-1.417 0.473,-2.275 0,-0.53 -0.051,-1.117 -0.15,-1.761 -0.101,-0.644 -0.215,-1.287 -0.344,-1.931 L 13.202,0 H 8.136 l 2.619,12.665 c 0.085,0.443 0.153,0.841 0.204,1.191 0.05,0.351 0.075,0.647 0.075,0.891 0,0.73 -0.204,1.295 -0.612,1.696 -0.408,0.401 -1.034,0.601 -1.878,0.601 -1.045,0 -2.018,-0.286 -2.92,-0.859 C 4.723,15.613 3.971,14.84 3.37,13.867 3.255,13.681 3.145,13.48 3.037,13.266 2.93,13.051 2.827,12.808 2.726,12.536 2.626,12.264 2.53,11.953 2.437,11.602 2.343,11.251 2.247,10.84 2.147,10.368 Z"
       style="fill:#f2f2f2;fill-opacity:1;fill-rule:nonzero;stroke:none"
       transform="matrix(0.35277776,0,0,-0.35277776,119.96916,44.48294)"
       clip-path="url(#clipPath134-8)" />
    <path
       id="path135"
       d="m 0,0 c -0.773,0.343 -1.542,0.594 -2.308,0.751 -0.765,0.158 -1.456,0.236 -2.071,0.236 -0.945,0 -1.786,-0.154 -2.523,-0.461 -0.737,-0.308 -1.381,-0.716 -1.932,-1.224 -0.551,-0.508 -1.016,-1.087 -1.395,-1.738 -0.379,-0.652 -0.687,-1.321 -0.923,-2.007 -0.236,-0.687 -0.408,-1.364 -0.515,-2.029 -0.107,-0.665 -0.161,-1.27 -0.161,-1.814 0,-0.815 0.1,-1.499 0.3,-2.05 0.201,-0.551 0.48,-0.987 0.838,-1.309 0.357,-0.322 0.783,-0.551 1.277,-0.687 0.494,-0.136 1.027,-0.204 1.599,-0.204 0.959,0 1.961,0.132 3.006,0.397 1.044,0.265 2.089,0.633 3.134,1.105 l -0.924,-4.464 c -0.729,-0.301 -1.631,-0.577 -2.704,-0.827 -1.073,-0.25 -2.219,-0.376 -3.435,-0.376 -1.059,0 -2.082,0.151 -3.07,0.451 -0.987,0.301 -1.86,0.776 -2.618,1.428 -0.759,0.651 -1.367,1.492 -1.825,2.522 -0.458,1.03 -0.686,2.282 -0.686,3.756 0,0.959 0.096,1.965 0.289,3.016 0.193,1.052 0.497,2.083 0.912,3.092 0.415,1.008 0.948,1.975 1.6,2.897 0.651,0.923 1.427,1.732 2.328,2.426 0.902,0.694 1.951,1.245 3.145,1.653 1.195,0.408 2.515,0.612 3.961,0.612 0.816,0 1.756,-0.104 2.823,-0.312 C -0.813,4.633 0.1,4.365 0.858,4.036 Z"
       style="fill:#f2f2f2;fill-opacity:1;fill-rule:nonzero;stroke:none"
       transform="matrix(0.35277776,0,0,-0.35277776,132.77468,38.78071)"
       clip-path="url(#clipPath136-0)" />
    <path
       id="path137"
       d="M 0,0 C 0,0.472 -0.187,0.88 -0.559,1.224 -0.93,1.567 -1.496,1.739 -2.254,1.739 -2.827,1.739 -3.41,1.624 -4.004,1.395 -4.598,1.166 -5.155,0.827 -5.678,0.376 -6.201,-0.075 -6.669,-0.626 -7.084,-1.277 -7.499,-1.928 -7.828,-2.676 -8.071,-3.52 c 1.517,0 2.79,0.1 3.821,0.3 1.03,0.201 1.86,0.465 2.49,0.794 0.629,0.33 1.08,0.705 1.352,1.127 C -0.136,-0.877 0,-0.444 0,0 M 5.109,0 C 5.109,-1.159 4.826,-2.2 4.261,-3.123 3.696,-4.046 2.862,-4.833 1.76,-5.485 0.658,-6.136 -0.702,-6.633 -2.318,-6.976 -3.936,-7.32 -5.796,-7.491 -7.9,-7.491 c -0.243,0 -0.551,0.006 -0.923,0.021 v -0.129 c 0,-0.758 0.111,-1.42 0.333,-1.985 0.222,-0.566 0.544,-1.027 0.966,-1.385 0.422,-0.358 0.934,-0.619 1.535,-0.784 0.601,-0.164 1.273,-0.246 2.017,-0.246 1.117,0 2.29,0.135 3.521,0.408 1.231,0.271 2.304,0.636 3.22,1.094 l -0.923,-4.465 c -0.888,-0.358 -1.9,-0.647 -3.037,-0.869 -1.139,-0.221 -2.351,-0.333 -3.639,-0.333 -1.532,0 -2.863,0.208 -3.993,0.623 -1.13,0.415 -2.064,0.998 -2.801,1.749 -0.737,0.752 -1.285,1.642 -1.642,2.673 -0.358,1.03 -0.536,2.168 -0.536,3.413 0,1.102 0.114,2.196 0.343,3.284 0.229,1.087 0.565,2.129 1.008,3.123 0.444,0.995 0.995,1.918 1.654,2.77 0.657,0.851 1.42,1.588 2.286,2.211 0.865,0.622 1.835,1.112 2.908,1.47 1.074,0.358 2.24,0.536 3.499,0.536 1.102,0 2.096,-0.136 2.984,-0.407 C 1.767,5.009 2.522,4.626 3.144,4.132 3.767,3.639 4.25,3.041 4.594,2.34 4.937,1.639 5.109,0.859 5.109,0"
       style="fill:#f2f2f2;fill-opacity:1;fill-rule:nonzero;stroke:none"
       transform="matrix(0.35277776,0,0,-0.35277776,138.41623,38.97009)"
       clip-path="url(#clipPath138-6)" />
  </g>
</svg>
