<?xml version="1.0" encoding="UTF-8"?>
<svg id="Capa_1" data-name="Capa 1" xmlns="http://www.w3.org/2000/svg" viewBox="0 0 1354.45 266.35">
  <defs>
    <style>
      .cls-1 {
        fill: #fff;
      }
    </style>
  </defs>
  <g>
    <path class="cls-1" d="M68.77,193.47c.19,0,.38,0,.57,0,13.7,0,23.45-7,29.94-14.42-.89.52-1.81,1-2.76,1.44-3.67,1.66-7.58,2.49-11.74,2.49-7.89,0-14.65-2.77-20.25-8.31-5.61-5.54-8.41-12.26-8.41-20.15,0-8.37,3.15-15.41,9.45-21.13,5.54-5.03,12.82-7.55,20.3-7.3,10.08.33,17.94,3.71,23.42,8.2-3.12-3.71-22.68-24.16-51.33-17.17-23.31,5.68-28.23,21.35-28.68,36.4-.23,7.72,2.72,19.95,11.81,29.04,7.09,7.09,16.4,10.76,27.68,10.92Z"/>
    <path class="cls-1" d="M58.16,112.84c32.5-5.22,48.97,14.07,51.4,17.11v-27.61c-9.35-4.52-18.42-6.6-24.78-6.6-16.2,0-30.05,5.75-41.55,17.24-6.42,6.42-11.04,13.57-13.87,21.45,5.2-10.27,14.6-19.32,28.8-21.6Z"/>
    <path class="cls-1" d="M143.36,51.38c0-4.02-3.26-7.28-7.28-7.28h-21.63v115.22c0,2.88-.64,5.66-1.9,8.27-4.46,9.23-17.56,30.57-43.2,30.57-.22,0-.43,0-.65,0-12.46-.18-23.23-4.45-31.14-12.37-3.7-3.7-6.47-7.86-8.51-12.08,2.8,8.25,7.52,15.71,14.18,22.37,11.49,11.5,25.34,17.24,41.55,17.24,14.68,0,27.49-4.78,38.43-14.33,10.94-9.56,17.45-21.46,19.53-35.73.42-2.49.62-4.99.62-7.48V51.38Z"/>
  </g>
  <g>
    <path class="cls-1" d="M978.4,121.55c5.49-7.35,15.89-17.91,31.84-20.98v-48.39c0-4.21-3.41-7.62-7.62-7.62h-24.22v76.98Z"/>
    <path class="cls-1" d="M1092.6,137.56c-1.89-7.73-4.93-14.75-9.11-21.06-4.18-6.31-10.02-11.16-17.51-14.55-7.5-3.39-16.45-5.09-26.86-5.09-5.98,0-11.68.99-17.14,2.92,27.23,1.33,41.35,23.27,41.23,44.46-.09,16.41.65,59.44.82,69.09h31.41v-49.72c0-9.62-.95-18.3-2.84-26.03Z"/>
    <path class="cls-1" d="M1058.25,144.2c.11-18.97-12.61-38.64-37.13-39.51-3.91-.14-7.52.21-10.86.91,0,0-.01,0-.02.01h0c-20.21,4.26-30.16,21.79-31.84,25.04v82.67h31.84l.24-51.14c.31-8.67,2.92-16.01,7.81-22.01,4.89-6,10.73-8.99,17.51-8.99s12.9,3.16,17.87,9.47c1.88,2.39,3.4,4.97,4.57,7.74,0-1.53,0-2.94,0-4.18Z"/>
  </g>
  <path class="cls-1" d="M543.96,95.67l27.5-.4c3.85-.1,7.28,2.4,8.35,6.09l17.45,43.61c.42,1.84,2.41,2.29,3.7,1.47l-14.97,43.11c-.78,2.21-2.78,2.4-3.36,2.4-.59,0-2.59-.14-3.42-2.31l-35.25-93.98ZM654.19,102.35l-34.71,101.01c-1.48,5.58-6.46,9.52-12.23,9.68l-12.03.32c-5.37.14-10.19-3.27-11.85-8.38,0,0-1.21-3.1-3.22-8.24.8.23,1.65.35,2.52.34h.14c3.65-.1,6.78-2.37,8.01-5.84l33.8-97.32c.39-.06.77-.12,1.17-.13l21.24-.48c4.8-.13,8.38,4.39,7.15,9.04Z"/>
  <path class="cls-1" d="M166.84,122.35h11.96v13.3c3.57-5.24,7.33-9.16,11.29-11.75,3.96-2.59,8.08-3.89,12.37-3.89,3.23,0,6.69,1.03,10.37,3.09l-6.1,9.87c-2.45-1.06-4.52-1.59-6.19-1.59-3.9,0-7.67,1.6-11.29,4.81-3.62,3.21-6.38,8.18-8.28,14.93-1.45,5.18-2.17,15.66-2.17,31.44v30.77h-11.96v-90.97Z"/>
  <path class="cls-1" d="M265.84,117.67c14.02,0,25.63,5.07,34.84,15.22,8.37,9.25,12.56,20.21,12.56,32.86s-4.43,23.82-13.28,33.32c-8.85,9.5-20.23,14.25-34.13,14.25s-25.37-4.75-34.22-14.25c-8.85-9.5-13.28-20.61-13.28-33.32s4.19-23.52,12.56-32.78c9.21-10.2,20.86-15.3,34.93-15.3ZM265.8,129.12c-9.73,0-18.1,3.6-25.09,10.79-6.99,7.19-10.49,15.89-10.49,26.09,0,6.58,1.59,12.71,4.78,18.39,3.19,5.69,7.5,10.08,12.92,13.17,5.43,3.09,11.38,4.64,17.87,4.64s12.44-1.55,17.87-4.64c5.42-3.09,9.73-7.48,12.92-13.17,3.19-5.69,4.78-11.82,4.78-18.39,0-10.2-3.51-18.9-10.53-26.09-7.02-7.19-15.37-10.79-25.05-10.79Z"/>
  <path class="cls-1" d="M334.9,122.35h11.71v16.3c4.68-6.24,9.87-10.91,15.55-14.01,5.69-3.09,11.87-4.64,18.56-4.64s12.83,1.73,18.1,5.18c5.27,3.46,9.16,8.11,11.66,13.96,2.51,5.85,3.76,14.97,3.76,27.34v46.82h-11.71v-43.39c0-10.48-.44-17.48-1.3-20.99-1.36-6.02-3.96-10.55-7.81-13.59-3.85-3.04-8.86-4.56-15.05-4.56-7.08,0-13.42,2.34-19.03,7.02-5.6,4.68-9.3,10.48-11.08,17.39-1.12,4.52-1.67,12.76-1.67,24.75v33.36h-11.71v-90.97Z"/>
  <path class="cls-1" d="M515.93,180.79l9.87,5.18c-3.24,6.36-6.97,11.48-11.21,15.39s-9.01,6.87-14.31,8.9c-5.3,2.03-11.3,3.05-17.99,3.05-14.84,0-26.45-4.86-34.81-14.59-8.37-9.73-12.55-20.72-12.55-32.98,0-11.54,3.54-21.82,10.63-30.85,8.98-11.48,21-17.22,36.07-17.22s27.9,5.88,37.16,17.64c6.58,8.31,9.93,18.68,10.04,31.1h-81.86c.22,10.57,3.6,19.23,10.13,25.99,6.53,6.76,14.59,10.14,24.19,10.14,4.63,0,9.14-.81,13.52-2.42s8.11-3.75,11.18-6.41c3.07-2.67,6.39-6.97,9.96-12.91ZM515.93,156.29c-1.56-6.24-3.84-11.23-6.82-14.97-2.99-3.73-6.93-6.74-11.85-9.03-4.91-2.29-10.07-3.43-15.49-3.43-8.93,0-16.61,2.87-23.02,8.61-4.69,4.18-8.23,10.45-10.63,18.81h67.81Z"/>
  <path class="cls-1" d="M676.99,93.89c2.66,0,4.94.95,6.83,2.84,1.89,1.9,2.83,4.18,2.83,6.86s-.94,4.88-2.83,6.77c-1.89,1.9-4.16,2.84-6.83,2.84s-4.86-.95-6.74-2.84c-1.89-1.89-2.83-4.15-2.83-6.77s.94-4.96,2.83-6.86c1.89-1.9,4.14-2.84,6.74-2.84ZM671.18,117.67h11.71v95.65h-11.71v-95.65Z"/>
  <path class="cls-1" d="M783.8,180.79l9.87,5.18c-3.24,6.36-6.97,11.48-11.21,15.39s-9.01,6.87-14.31,8.9c-5.3,2.03-11.3,3.05-17.99,3.05-14.84,0-26.45-4.86-34.81-14.59-8.37-9.73-12.55-20.72-12.55-32.98,0-11.54,3.54-21.82,10.63-30.85,8.98-11.48,21-17.22,36.07-17.22s27.9,5.88,37.16,17.64c6.58,8.31,9.93,18.68,10.04,31.1h-81.86c.22,10.57,3.6,19.23,10.13,25.99,6.53,6.76,14.59,10.14,24.19,10.14,4.63,0,9.14-.81,13.52-2.42s8.11-3.75,11.18-6.41c3.07-2.67,6.39-6.97,9.96-12.91ZM783.8,156.29c-1.56-6.24-3.84-11.23-6.82-14.97-2.99-3.73-6.93-6.74-11.85-9.03-4.91-2.29-10.07-3.43-15.49-3.43-8.93,0-16.61,2.87-23.02,8.61-4.69,4.18-8.23,10.45-10.63,18.81h67.81Z"/>
  <path class="cls-1" d="M806.21,122.35h12.04l27.88,66.05,29.03-66.05h2.12l29.22,66.05,28.42-66.05h12.17l-39.52,90.97h-2.17l-29.09-65.13-29.07,65.13h-2.18l-38.86-90.97Z"/>
  <path class="cls-1" d="M1114.15,120.01h11.71v42.48c0,10.37.56,17.5,1.67,21.4,1.67,5.58,4.87,9.98,9.59,13.21,4.72,3.23,10.34,4.85,16.87,4.85s12.07-1.57,16.62-4.72c4.55-3.15,7.69-7.29,9.42-12.42,1.17-3.51,1.76-10.95,1.76-22.33v-42.48h11.96v44.65c0,12.54-1.46,21.99-4.39,28.35-2.93,6.35-7.33,11.33-13.21,14.93-5.88,3.59-13.25,5.39-22.11,5.39s-16.26-1.8-22.2-5.39c-5.94-3.6-10.37-8.61-13.3-15.05-2.93-6.44-4.39-16.12-4.39-29.06v-43.81Z"/>
  <path class="cls-1" d="M1215.43,84.89s-.62,61.29,0,84.08c.35,12.69,5.48,21.29,11.02,27.26,4.83,5.2,11.4,9.56,17.64,12.57,6.24,3.01,13.06,4.51,20.46,4.51,13.15,0,24.38-4.67,33.7-14,9.31-9.34,13.97-20.69,13.97-34.07s-4.7-24.3-14.09-33.61c-9.4-9.31-20.7-13.96-33.91-13.96-7.63,0-14.53,1.59-20.71,4.77-6.18,3.18-11.6,7.94-16.27,14.3v-51.84h-11.79ZM1263.22,128.95c6.65,0,12.8,1.6,18.43,4.8,5.63,3.2,10.11,7.7,13.44,13.49,3.33,5.79,4.99,11.92,4.99,18.37s-1.68,12.53-5.03,18.37c-3.36,5.85-7.86,10.4-13.52,13.66-5.66,3.26-11.73,4.89-18.22,4.89s-12.74-1.61-18.6-4.84-10.36-7.6-13.52-13.11c-3.16-5.51-4.74-11.72-4.74-18.63,0-10.52,3.54-19.32,10.62-26.39,7.08-7.07,15.8-10.61,26.15-10.61Z"/>
</svg>