<?xml version="1.0" encoding="UTF-8" standalone="no"?>
<!-- Created with Inkscape (http://www.inkscape.org/) -->

<svg
   width="3pc"
   height="3pc"
   viewBox="0 0 12.7 12.7"
   version="1.1"
   id="svg1"
   inkscape:version="1.4.2 (f4327f4, 2025-05-13)"
   sodipodi:docname="Drone.svg"
   xmlns:inkscape="http://www.inkscape.org/namespaces/inkscape"
   xmlns:sodipodi="http://sodipodi.sourceforge.net/DTD/sodipodi-0.dtd"
   xmlns="http://www.w3.org/2000/svg"
   xmlns:svg="http://www.w3.org/2000/svg">
  <sodipodi:namedview
     id="namedview1"
     pagecolor="#ffffff"
     bordercolor="#cccccc"
     borderopacity="1"
     inkscape:showpageshadow="0"
     inkscape:pageopacity="1"
     inkscape:pagecheckerboard="0"
     inkscape:deskcolor="#d1d1d1"
     inkscape:document-units="mm"
     inkscape:zoom="0.72604517"
     inkscape:cx="397.3582"
     inkscape:cy="120.51592"
     inkscape:window-width="1920"
     inkscape:window-height="1017"
     inkscape:window-x="1912"
     inkscape:window-y="-8"
     inkscape:window-maximized="1"
     inkscape:current-layer="layer1" />
  <defs
     id="defs1" />
  <g
     inkscape:label="Capa 1"
     inkscape:groupmode="layer"
     id="layer1">
    <path
       id="path15"
       style="fill:#1d1d1b;stroke-width:0.0451744"
       class="cls-1"
       d="m 2.2630453,0.92397463 c -0.7662304,0 -1.38897507,0.62463637 -1.38897507,1.39252517 0,0.7678909 0.62274467,1.3944194 1.38897507,1.3944194 0.1845656,0 0.3614458,-0.038192 0.5229972,-0.1042023 0.018041,0.028487 0.040057,0.055607 0.064427,0.079573 l 1.6883722,1.6918705 v 2.3436102 0.00569 l -1.5348836,1.538402 c -0.018041,0.018075 -0.032918,0.036486 -0.047373,0.056837 -0.2039672,-0.1180315 -0.4412886,-0.18567 -0.69354,-0.18567 -0.7662319,0 -1.38897507,0.6246367 -1.38897507,1.3925254 0,0.767891 0.62274317,1.394419 1.38897507,1.394419 0.7662305,0 1.3908699,-0.626528 1.3908699,-1.394419 0,-0.176824 -0.034286,-0.346049 -0.094746,-0.502067 0.04287,-0.02214 0.08373,-0.04908 0.1193797,-0.08526 L 5.2285919,8.3867717 h 2.3099052 l 1.5386735,1.5421976 c -0.08754,0.1822497 -0.1364341,0.3853247 -0.1364341,0.6005857 0,0.767891 0.6227428,1.394419 1.3889755,1.394419 0.766229,0 1.390869,-0.626528 1.390869,-1.394419 0,-0.7672507 -0.62362,-1.3914872 -1.388975,-1.3925248 h -0.0018 c -0.202871,2.75e-4 -0.3963297,0.046149 -0.5704227,0.1250434 L 8.2831999,7.782397 C 8.2850099,7.76249 8.2869899,7.74167 8.2869899,7.72177 V 5.3232167 L 9.9279883,3.6787111 c 0.0194,-0.019432 0.03726,-0.042258 0.05306,-0.064417 0.1561357,0.061051 0.3267027,0.096624 0.5040487,0.096624 0.766231,0 1.388975,-0.6265284 1.388975,-1.3944195 0,-0.7678886 -0.622744,-1.39252497 -1.388975,-1.39252497 -0.7662317,0 -1.3908694,0.62463637 -1.3908694,1.39252497 0,0.2442059 0.06377,0.4745881 0.174332,0.6744747 -0.0045,0.00407 -0.0092,0.0073 -0.01326,0.011367 l -1.6239513,1.627456 h -0.00758 -2.4217054 c -0.019398,0 -0.040781,0.00192 -0.060638,0.00378 L 3.5250607,3.0118149 c -0.011734,-0.011769 -0.025266,-0.023691 -0.037899,-0.034103 0.1064935,-0.1967205 0.166753,-0.4224337 0.166753,-0.6612124 0,-0.7678892 -0.6246376,-1.39252517 -1.3908694,-1.39252487 z m 0,0.58921807 c 0.4422307,0 0.8034451,0.3620126 0.8034451,0.8052014 0,0.443188 -0.3612155,0.803307 -0.8034451,0.803307 -0.4422292,0 -0.8015503,-0.3601183 -0.8015503,-0.803307 0,-0.443639 0.3593204,-0.8052014 0.8015503,-0.8052014 z m 8.2220487,0 c 0.442682,0 0.80155,0.360122 0.80155,0.8033071 0,0.4431879 -0.35932,0.8052013 -0.80155,0.8052013 -0.442228,0 -0.8034447,-0.3620123 -0.8034447,-0.8052013 0,-0.4431863 0.3612157,-0.8033071 0.8034447,-0.8033071 z M 2.26494,9.7262483 c 0.4422288,0 0.8015504,0.3620117 0.8015504,0.8052007 0,0.443187 -0.3593208,0.803308 -0.8015504,0.803308 -0.4426809,0 -0.803445,-0.360122 -0.803445,-0.803308 0,-0.443188 0.3612151,-0.8052007 0.803445,-0.8052007 z m 8.066666,0 c 0.442231,0 0.80155,0.3620117 0.80155,0.8052007 0,0.443187 -0.35932,0.803308 -0.80155,0.803308 -0.4426807,0 -0.8034447,-0.360122 -0.8034447,-0.803308 0,-0.443188 0.361215,-0.8052007 0.8034447,-0.8052007 z" />
  </g>
</svg>
