<?xml version="1.0" encoding="UTF-8"?>
<svg id="Capa_1" xmlns="http://www.w3.org/2000/svg" version="1.1" viewBox="0 0 876.71 612">
  <!-- Generator: Adobe Illustrator 29.0.0, SVG Export Plug-In . SVG Version: 2.1.0 Build 186)  -->
  <defs>
    <style>
      .st0 {
        fill: #1d1d1b;
      }

      .st1 {
        fill: #010101;
      }
    </style>
  </defs>
  <g>
    <g>
      <path class="st1" d="M153.35,387.95c.42,0,.84.01,1.26.01,30.31,0,51.87-15.48,66.23-31.89-1.97,1.15-4,2.22-6.12,3.18-8.12,3.68-16.77,5.52-25.96,5.52-17.46,0-32.4-6.12-44.8-18.38-12.41-12.25-18.61-27.11-18.61-44.57,0-18.51,6.97-34.09,20.91-46.74,12.25-11.12,28.36-16.69,44.9-16.16,22.31.73,39.68,8.2,51.81,18.13-6.91-8.2-50.16-53.44-113.54-37.99-51.57,12.57-62.43,47.23-63.43,80.51-.51,17.07,6.02,44.13,26.12,64.23,15.68,15.68,36.28,23.8,61.23,24.15Z"/>
      <path class="st1" d="M129.88,209.59c71.88-11.55,108.32,31.11,113.7,37.85v-61.06c-20.68-9.99-40.73-14.6-54.81-14.6-35.84,0-66.47,12.71-91.9,38.14-14.19,14.19-24.42,30.01-30.68,47.45,11.5-22.72,32.28-42.72,63.7-47.77Z"/>
      <path class="st1" d="M318.33,73.67c0-8.89-7.21-16.1-16.1-16.1h-47.84v254.84c0,6.36-1.42,12.52-4.21,18.29-9.87,20.42-38.85,67.62-95.55,67.62-.48,0-.96,0-1.45-.01-27.56-.39-51.37-9.84-68.88-27.35-8.18-8.17-14.32-17.39-18.82-26.73,6.19,18.24,16.63,34.74,31.37,49.48,25.43,25.43,56.06,38.14,91.9,38.14,32.47,0,60.8-10.57,85-31.7,24.2-21.14,38.6-47.48,43.19-79.03.92-5.52,1.38-11.03,1.38-16.54V73.67Z"/>
    </g>
    <g>
      <path class="st1" d="M579.58,231.66c11.99-16.04,34.66-39.07,69.45-45.76v-105.55c0-9.18-7.44-16.62-16.61-16.62h-52.84v167.93Z"/>
      <path class="st1" d="M828.7,266.58c-4.13-16.86-10.76-32.18-19.88-45.95-9.12-13.76-21.86-24.34-38.21-31.75-16.35-7.4-35.88-11.1-58.6-11.1-13.03,0-25.48,2.17-37.39,6.36,59.39,2.9,90.21,50.77,89.95,96.98-.2,35.79,1.41,129.67,1.79,150.72h68.53v-108.47c0-20.99-2.07-39.92-6.2-56.79Z"/>
      <path class="st1" d="M753.76,281.06c.24-41.39-27.51-84.28-81.01-86.2-8.53-.32-16.4.46-23.68,1.99-.01,0-.03.02-.04.02v-.02c-44.1,9.31-65.79,47.55-69.45,54.63v180.35h69.45l.52-111.57c.68-18.92,6.37-34.93,17.04-48.01,10.67-13.08,23.41-19.62,38.21-19.62s28.14,6.89,38.98,20.65c4.1,5.21,7.42,10.84,9.97,16.89,0-3.33,0-6.41.02-9.12Z"/>
    </g>
    <path class="st1" d="M333.25,183.98l57.91-.84c8.1-.22,15.32,5.05,17.59,12.83l36.75,91.84c.89,3.87,5.08,4.82,7.78,3.1l-31.53,90.78c-1.65,4.65-5.86,5.06-7.08,5.06-1.25.02-5.44-.29-7.19-4.86l-74.23-197.9ZM565.39,198.07l-73.09,212.71c-3.12,11.75-13.6,20.05-25.76,20.38l-25.32.68c-11.31.31-21.47-6.88-24.95-17.64,0,0-2.55-6.53-6.77-17.35,1.69.48,3.47.74,5.31.72h.29c7.68-.22,14.28-5,16.87-12.29l71.18-204.95c.81-.13,1.63-.25,2.47-.27l44.73-1.01c10.11-.27,17.65,9.25,15.06,19.03Z"/>
  </g>
  <g>
    <path class="st0" d="M131.24,455.79s.55,37.26,0,49.22c-.34,7.42-2.63,11.96-7.18,17.05-2.74,3.06-5.67,4.51-9.24,6.27-3.57,1.76-7.48,2.64-11.72,2.64-7.54,0-13.97-2.73-19.31-8.2-5.33-5.46-8-12.11-8-19.95s2.69-14.23,8.08-19.68c5.38-5.45,11.86-8.17,19.43-8.17,4.37,0,8.33.93,11.87,2.79,3.54,1.86,6.65,4.65,9.32,8.37v-30.35h6.75ZM103.85,481.58c-3.81,0-7.33.94-10.56,2.81-3.23,1.88-5.79,4.51-7.7,7.9-1.91,3.39-2.86,6.98-2.86,10.76s.96,7.33,2.88,10.76c1.92,3.42,4.51,6.09,7.75,7.99s6.72,2.86,10.44,2.86,7.3-.95,10.66-2.84,5.94-4.45,7.75-7.68c1.81-3.23,2.71-6.86,2.71-10.9,0-6.16-2.03-11.31-6.09-15.45-4.06-4.14-9.05-6.21-14.99-6.21Z"/>
    <path class="st0" d="M144.16,476.35h7v7.78c2.09-3.07,4.29-5.36,6.61-6.88,2.32-1.52,4.73-2.28,7.24-2.28,1.89,0,3.92.6,6.07,1.81l-3.57,5.78c-1.44-.62-2.64-.93-3.62-.93-2.28,0-4.49.94-6.61,2.81-2.12,1.88-3.74,4.79-4.85,8.74-.85,3.04-1.27,9.17-1.27,18.4v18.01h-7v-53.25Z"/>
    <path class="st0" d="M202.11,474.98c8.21,0,15,2.97,20.4,8.91,4.9,5.42,7.35,11.83,7.35,19.24s-2.59,13.94-7.77,19.51c-5.18,5.56-11.84,8.34-19.98,8.34s-14.85-2.78-20.03-8.34c-5.18-5.56-7.77-12.07-7.77-19.51s2.45-13.77,7.35-19.19c5.39-5.97,12.21-8.96,20.45-8.96ZM202.09,481.68c-5.7,0-10.59,2.11-14.69,6.31-4.09,4.21-6.14,9.3-6.14,15.27,0,3.85.93,7.44,2.8,10.77,1.87,3.33,4.39,5.9,7.56,7.71,3.18,1.81,6.66,2.72,10.46,2.72s7.29-.91,10.46-2.72c3.18-1.81,5.7-4.38,7.56-7.71,1.87-3.33,2.8-6.92,2.8-10.77,0-5.97-2.05-11.06-6.17-15.27-4.11-4.21-9-6.31-14.66-6.31Z"/>
    <path class="st0" d="M242.54,476.35h6.85v9.54c2.74-3.65,5.78-6.39,9.1-8.2,3.33-1.81,6.95-2.72,10.87-2.72s7.51,1.01,10.6,3.03c3.08,2.02,5.36,4.75,6.83,8.17,1.47,3.43,2.2,8.76,2.2,16.01v27.41h-6.85v-25.4c0-6.13-.25-10.23-.76-12.29-.79-3.52-2.32-6.17-4.57-7.95-2.25-1.78-5.19-2.67-8.81-2.67-4.15,0-7.86,1.37-11.14,4.11-3.28,2.74-5.44,6.13-6.49,10.18-.65,2.64-.98,7.47-.98,14.49v19.53h-6.85v-53.25Z"/>
    <path class="st0" d="M348.51,511.93l5.78,3.03c-1.89,3.72-4.08,6.72-6.56,9.01s-5.28,4.02-8.38,5.21c-3.1,1.19-6.62,1.79-10.53,1.79-8.69,0-15.48-2.85-20.38-8.54-4.9-5.69-7.35-12.13-7.35-19.31,0-6.75,2.07-12.78,6.22-18.06,5.26-6.72,12.3-10.08,21.12-10.08s16.33,3.44,21.75,10.33c3.85,4.86,5.81,10.93,5.88,18.21h-47.92c.13,6.19,2.11,11.26,5.93,15.21,3.82,3.96,8.54,5.93,14.16,5.93,2.71,0,5.35-.47,7.91-1.41s4.75-2.19,6.54-3.75c1.8-1.56,3.74-4.08,5.83-7.56ZM348.51,497.59c-.92-3.65-2.25-6.58-3.99-8.76-1.75-2.19-4.06-3.95-6.93-5.29-2.88-1.34-5.9-2.01-9.07-2.01-5.23,0-9.72,1.68-13.48,5.04-2.75,2.45-4.82,6.12-6.22,11.01h39.7Z"/>
    <path class="st0" d="M391.54,476.35h7.29l17.88,38.82,17.66-38.82h7.34l-24.38,53.25h-1.27l-24.52-53.25Z"/>
    <path class="st0" d="M454.51,454.42c1.56,0,2.89.56,4,1.67s1.66,2.45,1.66,4.01-.55,2.86-1.66,3.96c-1.1,1.11-2.44,1.67-4,1.67s-2.84-.55-3.95-1.67c-1.1-1.11-1.66-2.43-1.66-3.96s.55-2.9,1.66-4.01,2.42-1.67,3.95-1.67ZM451.11,476.35h6.85v53.25h-6.85v-53.25Z"/>
    <path class="st0" d="M517.04,511.93l5.78,3.03c-1.89,3.72-4.08,6.72-6.56,9.01s-5.28,4.02-8.38,5.21c-3.1,1.19-6.62,1.79-10.53,1.79-8.69,0-15.48-2.85-20.38-8.54-4.9-5.69-7.35-12.13-7.35-19.31,0-6.75,2.07-12.78,6.22-18.06,5.26-6.72,12.3-10.08,21.12-10.08s16.33,3.44,21.75,10.33c3.85,4.86,5.81,10.93,5.88,18.21h-47.92c.13,6.19,2.11,11.26,5.93,15.21,3.82,3.96,8.54,5.93,14.16,5.93,2.71,0,5.35-.47,7.91-1.41s4.75-2.19,6.54-3.75c1.8-1.56,3.74-4.08,5.83-7.56ZM517.04,497.59c-.92-3.65-2.25-6.58-3.99-8.76-1.75-2.19-4.06-3.95-6.93-5.29-2.88-1.34-5.9-2.01-9.07-2.01-5.23,0-9.72,1.68-13.48,5.04-2.75,2.45-4.82,6.12-6.22,11.01h39.7Z"/>
    <path class="st0" d="M530.16,476.35h7.05l16.32,38.67,16.99-38.67h1.24l17.11,38.67,16.64-38.67h7.13l-23.13,53.25h-1.27l-17.03-38.13-17.02,38.13h-1.28l-22.75-53.25Z"/>
    <path class="st0" d="M648.41,455.79h6.85v30.1c2.77-3.65,5.83-6.39,9.15-8.2,3.33-1.81,6.93-2.72,10.82-2.72s7.51,1.01,10.6,3.03c3.08,2.02,5.36,4.74,6.83,8.15,1.47,3.41,2.2,8.75,2.2,16.03v27.41h-6.85v-25.4c0-6.13-.25-10.23-.73-12.29-.85-3.52-2.39-6.17-4.63-7.95-2.24-1.78-5.16-2.67-8.79-2.67-4.14,0-7.86,1.37-11.14,4.11s-5.44,6.13-6.49,10.18c-.65,2.61-.98,7.44-.98,14.49v19.53h-6.85v-73.81Z"/>
    <path class="st0" d="M708.67,476.35h6.85v24.87c0,6.07.33,10.25.98,12.53.98,3.26,2.85,5.84,5.61,7.73,2.76,1.89,6.05,2.84,9.88,2.84s7.07-.92,9.73-2.77c2.66-1.84,4.5-4.27,5.52-7.27.69-2.06,1.03-6.41,1.03-13.07v-24.87h7v26.14c0,7.34-.86,12.87-2.57,16.59-1.71,3.72-4.29,6.63-7.73,8.74-3.44,2.1-7.76,3.16-12.95,3.16s-9.52-1.05-13-3.16c-3.48-2.11-6.07-5.04-7.78-8.81-1.71-3.77-2.57-9.44-2.57-17.01v-25.65Z"/>
    <path class="st0" d="M767.96,454.97s-.37,35.88,0,49.22c.2,7.43,3.21,12.46,6.45,15.96,2.83,3.04,6.67,5.6,10.33,7.36,3.65,1.76,7.64,2.64,11.98,2.64,7.7,0,14.27-2.73,19.73-8.2,5.45-5.46,8.18-12.11,8.18-19.95s-2.75-14.23-8.25-19.68c-5.5-5.45-12.12-8.17-19.85-8.17-4.47,0-8.51.93-12.13,2.79-3.62,1.86-6.79,4.65-9.53,8.37v-30.35h-6.9ZM795.94,480.77c3.89,0,7.49.94,10.79,2.81,3.3,1.88,5.92,4.51,7.87,7.9,1.95,3.39,2.92,6.98,2.92,10.76s-.98,7.33-2.95,10.76c-1.96,3.42-4.6,6.09-7.92,7.99s-6.87,2.86-10.66,2.86-7.46-.95-10.89-2.84-6.07-4.45-7.92-7.68c-1.85-3.23-2.77-6.86-2.77-10.9,0-6.16,2.07-11.31,6.22-15.45,4.15-4.14,9.25-6.21,15.31-6.21Z"/>
  </g>
</svg>